<mxfile host="app.diagrams.net" agent="Mozilla/5.0 (Windows NT 10.0; Win64; x64) AppleWebKit/537.36 (KHTML, like Gecko) Chrome/139.0.0.0 Safari/537.36 Edg/139.0.0.0" version="28.1.0">
  <diagram name="Page-1" id="ZA8SCCx2IKTPlqkjhby-">
    <mxGraphModel dx="1017" dy="507" grid="1" gridSize="10" guides="1" tooltips="1" connect="1" arrows="1" fold="1" page="1" pageScale="1" pageWidth="850" pageHeight="1100" math="0" shadow="0">
      <root>
        <mxCell id="0" />
        <mxCell id="1" parent="0" />
        <mxCell id="2Z22_kwRR9E-XswUGfWk-1" value="&lt;pre style=&quot;text-align: start;&quot;&gt;&lt;br&gt;&lt;/pre&gt;" style="text;html=1;align=center;verticalAlign=middle;resizable=0;points=[];autosize=1;strokeColor=none;fillColor=none;" vertex="1" parent="1">
          <mxGeometry x="220" y="268" width="20" height="50" as="geometry" />
        </mxCell>
        <mxCell id="2Z22_kwRR9E-XswUGfWk-3" value="" style="shape=image;imageAspect=0;aspect=fixed;verticalLabelPosition=bottom;verticalAlign=top;image=data:image/png,iVBORw0KGgoAAAANSUhEUgAABLAAAAERCAYAAABrWV4jAAAQAElEQVR4AeydB2Ab1f3Hf7+TbGeQYclOQiI5gYbSQvm3lE66gLb/zn8XDZQymlhO2GVTNmbvvRPLCVBoabr3Lt0TWlqgjEAcSQkZlpwBSTzufv/fc+LESTwkW7ohfc/vWae7937jc0937353984iTCBQBALxRHaTZvFZvqUIrkEECIAACIAACIAACIAACIAACJQDAfgAAoEmgABWoDcfjAcBEAABEAABEAABEAABEHCPADSBAAiAAAh4RQABLK/IQy8IgAAIgAAIgAAIVCIB+AwCIAACIAACIAACIyCAANYIoKEKCIAACIAACHhJALpBAARAAARAAARAAARAoNIIIIBVaVsc/oIACBgCyCAAAiAAAiAAAiAAAiAAAiAAAgEigABWgDaWv0yFNSAAAiAAAiAAAiAAAiAAAiAAAiAAAuVPwB8eIoDlj+0AK0AABEAABEAABEAABEAABEAABMqVAPwCARAYNQEEsEaNEAJAAARAAARAAARAAARAAARKTQDyQQAEQAAEKpsAAliVvf3hPQiAAAiAAAiAQOUQgKcgAAIgAAIgAAIgEFgCCGAFdtPBcBAAARAAAfcJQCMIgAAIgAAIgAAIgAAIgIAXBBDA8oI6dIJAJROA7yAAAiAAAiAAAiAAAiAAAiAAAiBQIAEEsAoE5ofisAEEQAAEQAAEQAAEQAAEQAAEQAAEQKD8CcDDnQQQwNrJAnMgAAIgAAIgAAIgAAIgAAIgAALlRQDegAAIlAkBBLDKZEPCDRAAARAAARAAARAAARAoDQFIBQEQAAEQAAHvCSCA5f02gAUgAAIgAAIgAALlTgD+gQAIgAAIgAAIgAAIjIoAAlijwofKIAACIAACbhGAHhAAARAAARAAARAAARAAgcolgABW5W57eF55BOAxCIAACIAACIAACIAACIAACIAACASSAAJYBW02FAYBEAABEAABEAABEAABEAABEAABECh/AvDQbwQQwPLbFoE9IAACIAACIAACIAACIAACIFAOBOADCIAACBSRAAJYRYQJUSAAAiAAAiAAAiAAAiBQTAKQBQIgAAIgAAIgsI0AAljbOOA/CIAACIAACIBAeRKAVyAAAiAAAiAAAiAAAmVAAAGsMtiIcAEEQAAESksA0kEABEAABEAABEAABEAABEDAWwIIYHnLH9orhQD8BAEQAAEQAAEQAAEQAAEQAAEQAAEQGDGBwASwRuwhKoIACIAACIAACIAACIAACIAACIAACASGAAwFgYEIIIA1EBUsAwEQAAEQAAEQAAEQAAEQAIHgEoDlIAACIFB2BBDAKrtNCodAAARAAARAAARAAARGTwASQAAEQAAEQAAE/EQAASw/bQ3YAgIgAAIgAALlRAC+gAAIgAAIgAAIgAAIgECRCCCAVSSQEAMCIAACpSAAmSAAAiAAAiAAAiAAAiAAAiAAAkQIYKEVlDsB+AcCIAACIAACIAACIAACIAACIAACIBBwAnkEsALuIcwHARAAARAAARAAARAAARAAARAAARDIgwCKgIB/CSCA5d9tA8tAAARAAARAAARAAARAAASCRgD2ggAIgAAIlIQAAlglwQqhIAACIAACIAACIAACIyWAeiAAAiAAAiAAAiCwOwEEsHYngu8gAAIgAAIgEHwC8AAEQAAEQAAEQAAEQAAEyooAAlhltTnhDAiAQPEIQBIIgAAIgAAIgAAIgAAIgAAIgIBfCCCA5ZctUY52wCcQAAEQAAEQAAEQAAEQAAEQAAEQAIHyJ+CChwhguQAZKkAABEAABEAABEAABEAABEAABEBgKAJYBwIgMDQBBLCG5oO1IAACIAACIAACIAACIAACwSAAK0EABEAABMqYAAJYZbxx3XRNRC4icc71UxZ2fuAmA+gCARAAARAAgeATgAcgAAIgAAIgAAIg4E8CCGD5c7sEzqpMa91d6db6W/yUMy31jwcOJAwGARAIPgEfexCbv+4D8UT2qnhT9rbB8pSmNVOJhH3sBkwDARAAgRETqD9l7V6D7f92LG/Mnj1iBagIAiAAAiBQMgIIYJUMLQSDAAiMlADqgQAIFJdALJE7raEpdyc71tUkcg4JnTlYHkNVt8QbO+6KNeX+h5oF/QTCBAIgUA4EYnPSY+OJ3F1jOkN3DLb/61suJF8xZeOJ7Fnl4Dt8AAEQAIFyIYCOablsyV39wDcQAAEQAAEQ6CUQb8yezSIXiMhpuuC9xDxWPwdNWu5YYjmVHbkxlsrdd8gCqRq0MFaAAAiAQAAIRE7PTuSJ4+4m6t0PNg5nMjNP2VZWzo83Zc8hBPOHQ4b1IAAC3hKoGO0IYFXMpoajIAACIAAClUag98SL6VximqG+F/ZYINNHmGnBWju3kOZISOsjgQAIgEDACAjv3bjubeM3y31q+LCBKy2zW+JpJHRuPL3+om2PV++2Gl/LiABcAQEQCAIBBLCCsJVgIwiAAAiAAAgUSKA3eGUeFyTau8CquxefG5+YSxJhXKzdweA7CIBAPwI+nD1gzrrxIQ7dSMRfpJFP04icM6olfMrIRaAmCIAACIBAMQgggFUMipABAiAAAiAAAj4iEE9kz+0d64p4tMGrPq++1JDoeKjvCz5LQwBSQQAEikhAhDdNCiWZ5PAiSK1jovm9+9YiCIMIEAABEACBkRFAAGtk3FALBEAABEDAfwRg0U4CR1DxgldkJiE5znwigwAIgEAQCMSbco+S0FFFtFUvCMjZCGIVkShEgQAIgECBBBDAKhAYioNAeROAdyAAAkEn0JDIfUV9OFhz0VO8KftY0YVCIAiAAAiUhsAXii/W3NXK7y++XEgEARAAARDIhwACWPlQKqQMyoIACIAACICAhwSE6D2qfprm4iehzxdfKCSCAAiAQHEJNDRllxZXYn9p8paGpvYv91+CeRAAgQomANddJVAWAaxYY+68eCL3PZ/le/PdkvH5G97uM9u3sfzSmtfl7YNelfefD9kRvG0mX49RDgRAAAT8R2D6glV1xDK2lJbVnyJ7lVI+ZIMACIDAaAmI0OdGK2OI+jPI4fcNsR6rCiSA4iAAAiCQL4GyCGAxyyFE8ik/ZSY5It+NwE6XXin3l/2GpWVZk/L1gYQ+bur4K9OBeduPgiAAAiBQBgRCTvUCEjmohK7wmK0d15dQPkSDAAgUTgA13CVgCXPYXZXQBgIgAAIgYAiURQDLOIIMAiAAAiAAApVOgIkPJuJ6Kt2kKuSY0on3SjL0ggAIgAAIgAAIgAAI+J0AAlh+30KwDwRAAASCQAA2+oKASO9dAaU+tk/whbMwAgRAAARAAARAAARAoKIIlLqTW1Ew4SwIjIYA6oIACIAACIAACIAACIAACIAACIAACAxMoJwCWAN7iKUgAAIgAAIgAAIgAAIgAAIgAAIgAALlRAC+VCABBLAqcKPDZRAAARAAARAAARAAARAAgUonAP9BAARAIFgEEMAK1vaCtSAAAiAAAiAAAiAAAn4hADtAAARAAARAAARcI4AAlmuooQgEQAAEQAAEQGB3AvgOAiAAAiAAAiAAAiAAAvkQQAArH0ooAwIgAAL+JQDLQAAEQAAEQAAEQAAEQAAEQKDsCSCAVfabGA4OTwAlQAAEQAAEQAAEQAAEQAAEQAAEQAAE/EygOAEsP3sI20AABEAABEAABEAABEAABEAABEAABIpDAFJAwCMCCGB5BB5qQQAEQAAEQAAEQAAEQAAEKpMAvAYBEAABECicAAJYhTNDDRAAARAAARAAARAAAW8JQDsIgAAIgAAIgECFEUAAq8I2ONwFARAAARAAgW0E8B8EQAAEQAAEQAAEQAAEgkMAAazgbCtYCgIg4DcCsAcEQAAEQAAEQAAEQAAEQAAEQMAVAghguYIZSgYjgOX+JBCfnz07nsj+viGx7v/8aSGsAgEQAAEQAAEQAAEQAAEQAAEQCBKB0dqKANZoCaI+CJQhAbFpgrp1qAg/1pDInqHzSCAAAiAAAiAAAiAAAiAAAt4SgHYQqGgCCGBV9OaH8yCwJ4GGxvYLmOliXWMR81ghuine2P74jMZ1h+syJBAAARAAARAAARAIMAGYDgIgAAIgEFQCVlANh90gAALFJxBLZM8Q5ktUcpXmvlRFbL3PYutn8ab2k/sW4hMEQAAEQKBCCcBtEAABEAABEAABEPCAAAJYHkCHShDwKwGLeazaNl7zbknMvqKKhO9uaMou2G0lvoIACBRIAMVBAARAAARAAARAAARAAAQKI2BOSgurgdIgAAJlSSCWyJ0vItcN45wlQg/EE9mXG7wd4H0YM7EaBEAABEAABEAABEAABEAABECgnAgggFVOW7MgX1AYBHYSmJnINjHJhTuXDDu3j5D1vfj8jrnU3Ht31rAVUAAEQAAEQAAEQAAEQAAEQAAEQMALAuWhEwGs8tiO8AIERk5gjoRs4ogKmKy5kMTkOIvjqewJpDIKqYiyIAACIAACIAACIAACIBAoAjAWBEDAcwIIYHm+CWAACHhLoGFi7jQmuWHEVjAvbpiYPY6aJTxiGagIAiAAAiAAAiBQ9gTgIAiAAAiAAAiMhgACWKOhh7ogEHACs0+XGiIZN1o3hHhJQ2b9Fw9ZIFWjlYX6IAACIAACgxLAChAAARAAARAAARCoWAIIYFXspofjIEDU+Vq2SYNP1xaDhYjz4Dp7/RcOmCPVxZAHGSBQGgKQCgIgAAIgAAIgAAIgAAIgEEQCCGAFcavBZhAoAoGpx68eTxYVOu4VEQ0+CTkPvToxe/Ts01+sGbwU1oAACIAACIAACIAACIAACIAACIBAYQQQwCqMV1FKQwgI+IFAdVXoeBK+uti2CPFDW7fUztn2eGKxpUMeCIAACIAACIAACIAACIAACASHACwtHgEEsIrHEpJAIDAE6k9Zuxdte/MglWJi4Ye3bumYM2uujCmFfMgEARAAARAAARAAARCoGAJwFARAAAR6CSCA1YsB/0CgsgjUbA0dQ8zXlNJrFnnYCXd8PjYnPbaUeiAbBEAABEAABEBgOAJYDwIgAAIgAALBJ4AAVvC3ITwAgYIIzJq7fAwz7VVQpREWFg1i8aRxn8LjhCMEiGogAAL+IQBLQAAEQAAEQAAEQAAEPCWAAJan+KEcBNwnIFUT36paP6vZnSR0W+dr7Qe5owxa/EwAtoEACIAACIAACIAACIAACIDASAkggDVScqgHAu4TKIpGR2h/FfQ+zW6lvZn5wOkLVo1zSyH0gAAIgAAIgAAIgAAIgAAIgAAIlBeBCgtgldfGgzcgUCiBWXM7JpPIjELrjba8EC8J29Vzpi8QBLFGCxP1QQAEQAAEQAAEQAAEQAAE8iCAIuVGAAGsctui8AcEhiDghJwPs/B5QxQp2SoTxLJ6sh+ZffqLNSVTAsEgAAIgAAIgAAIgAALFIwBJIAACIOAjAghg+WhjwBQQKDkBkbHCNLHkegZRwBZfuHXTpIZBVmMxCIAACIAACJQdATgEAiAAAiAAXfQ1qAAAEABJREFUAiBQHAJlEcBipueI+Pd+ykLyBOU5sWVlyWf2G3t6wvQq5T/9iXzmg26D5YRpJ4FmsYQ5vHOBB3NCbycr9P6px68e74F2qAQBEAgmAVgNAiAAAiAAAiAAAiAAAlQWAaxUS7Q5nYy831+57th829eKRdE/+cv2bSxXLqp/IV8f0snoR9I+2waZZN3d+dpfCeWmv9QRI+KDyeOJmVrGVNe8nkjYY1MqSD1cBQEQAAEQAAEQAAEQAAEQAIFgEyiLAFawNwGsDwSBMjDSqrbfq0Gj0/zgiojzgf0baS8/2AIbQAAEQAAEQAAEQAAEQAAEQAAE/E/AtQCW/1HAQhAAAbcICNNtWyj3sVlzl49xSyf0gAAIgAAIgAAIgAAIgAAIuEMAWkCgFAQQwCoFVcgEAd8R0JARs69+72rR5RyaPNV3qGAQCIAACIAACIAACHhPABaAAAiAAAjsRsBXJ7S72YavIAACRSIwfV4upj/2dxRJXLHEHNDDzrtwF1axcEIOCIAACIDArgTwDQRAAARAAARAoJwI6DltObkDX0AABAYiEArRoSJ8+kDrPF0mdFkXT6z31AYoBwEQGJwA1oAACIAACIAACIAACICATwgggOWTDQEzQKBCCRxQXSXjiaRs30hYodsVboMACIAACIAACIAACIAACIBAUQkggFVUnBBWAgIQWeYE7B76XF1jO95IWObbGe6BAAiAAAiAAAiAAAiAAAiAwDAEhlyNANaQeLASBECg5ASYr9nLCUdLrgcKQAAEQAAEQAAEQAAEQKDsCcBBEChfAhrAEo4nso1+yzPmr31LvthjTR2H+c3+WGP2yHztnz4vG/eb/caeGSdszDuo0JBoP97U8VOOJdrzHrR85vzsoX6yvdeWptwx+bahoJezLedzU49fPT7ofsB+EAABEAABEACBMiAAF0AABEAABHxJwKJmMmPPJInIV9myQ/+nNuWVWJyTtKC/7Ge6Rm3KK4UtxwTrfGW/Gp4Mhzpn6mdeSYjv1YK+8oGJj1ab8kqO8PFa0F/2O3K72jT6NEdCjljVoxdUQgnM14VrqmpLqAGiQQAEQAAEXCQAVSAAAiAAAiAAAiBQbAJWsQVCHgiAgL8I7DNxfcwi+13k60mqxe4NpvvaShgHAi4SgCoQAAEQAAEQAAEQAAEQAIF+BBDA6gcDsyBQjgS6RQ5g5s/73bdQiA6dffqLNcWzE5JAYGgCMxqz7441tp8ea2r/chHzcXsnVuV99+rQFmJt0AjMmtsxq6Epu6BY7SnelDu5Yd66T844Nf9H+oPGDPYOTSB2UvuMGYmO42ONHcXZVzVmEzMa17yZmgXnAEOjx9oiEJi+YFVdvKn907EhjrMzE7lP7LsgN6kI6spaROwsGRtvXPe2WCLbNBTPgtYl2k+bqX2h6QtkXFnDK5FzDY1r3zvcMX/2sdmJJVI/arGz5sqYWfM73mKGrimo3QzxezZyTL9l1ty100p1nMHBa9SbvowFwLWyIGCJjBehKX53honO29w5dYLf7YR9wSSgHYwPN+gBVw/SZ/Vly6Irma07WLiY+eYwjbmwT4f5jDXljmtoXLMvYSorAg3zswfGm9pPNdu4LzuhnouF6LZitSkSuUMs67pQZ/dX+nT0fjZlj5560mrf79fLaoO74ExsQe6geCJ3Su82TmR791XcQxcy2bcwO3cWpV0x3WpR6PJ4Jtcr3+hqaMyeGW/s+NQhC6TKBTehogII7NO0ZmqsMXds2Kk5X4ivH6rtOiLXddt0nu5PP20CXhWAZ1gXzbiw8abc+8zvsy/zhty52mdp1pP3W4fiWdA6sm53tC9k2blz+/Rs++x4P4Jag2+meKL9M2a/SRy+Uhy5fSjmnWOpl+3U48XTsX71tzVu+5jPO/b9drjjHNuRy9XTW3b4UIQ+sWi/pSdkXRBPt58d334sM58Njbn3GjtU36iS/gZGVR+VQQAEQKAoBETokFBPp7/H6iqKpxDiBoH4gvWv087fqbHGdeeZrO3rahG+VXXvzEIfIhKNnerS4qWpKvNEFbdDD4vcKBS+xNhhcnx+x6eKcQBXHUguEpg1t2NyQyJ3otmGJmt7uozEukVN2LGthawmEirmlWwTUHiTCJ23ix6hG6p7qi40dphs7mCgZtxRo4wClWYuWLd3/zZl2XI5kezSpkj4VCauL6JjE4n5syR0s8rsbbu6F7yV2LlubXf2fNOeGhLZM2JNHYfpeiQQKJjA3olVM7slfCGzHvt038VCbxhSCNNB2u4vJuFrQ3bNhXrsft+Q5X2+cmTmCcfmrt3P/P5Mrq6p+go5zlUq69YdmelKIfqE5iJe7JUQaV+Iia7YoYdIdcpVYTv3FWNLb06snU1ztKwWqvQUa8weqfvM6zTfKiSHE/PYIZkIXarrb62uzl4Qm7v6IDc5zmxav0/v9tO+cNiu+Yrt0JXGlh1Z5Gr97X1Gv0/WXMz0JiY+g8i6SYVqezJtSjPTlSao3WfTrFNenab6WcsUlBDAKggXCoMACIAACPiVwPTGdfvHErnTGhLtF2rH7zISuYHZutFktdm8lTSkn16kvYlpHvfZ4jjXhOwxFxk7G+bnPjlr7vIxXhgFncMTiCU2REyAwWwrO+RcrJ3V63dsR5GjtONVM7yU4pdgopkkdGafLWrX1fFM9kJjZ6wx9zFCMIv8Ok1fkGuIN7WfbLaVY/Mluu127Kf0xNS8wdqL/YE2KTqALL7atCkhvoHFucrYqO3/K/H52Y+4yBOqAkrA3HXV0JRdEJaaS7VB6ckrTS/QlQO0/Nm6b7synlj7fp0v8yRsAgwN2mdpSHRcYIWsy8zvz2RlcCkxf8A7APJ+IdppD1mXxSduO8bMOqljVkUeY0S4IZGdwyzXsrAJymozL2QL8SVWqOryhgm5Iw9Z8A9zcaqQynmXNceYht421X6hI/ZlvL3v2bs9iT6Yt6ASFNTj3eEidHmfTXbn1ktN2++19+T1eb/MCwGsEmwciAQBEBgZAVssrwIMIzMYtXxBQK+GJeKN2UtDVuhyIrlWiK/V4NUJapynt2ur/sHSm9RODYbwtY4jV9nhSZca+/UA7mnHYjBjK3F5vCk7z2wTop7LtMN1TW+bIjpXWRT7KqWKHH0SoreQ8NWibZ9ZroylcpdqMPf8eNPaCryTgXw5aSf9S3GznzJ3WQlvb1N8iho7SbPPkpjA7HtNe9L2fx3ZdJWxvaGp44Tpx69q8JmxMMcHBMxYbT1SdZlo2yamxOhMksOIwlfEEx1lGcSaueC1vbftn3OXOE5Ps+h+W39npu9y3Oi4la42Ex9PxFcZW+1upzmmx5i47s/qGtdNoAqZ4vNzetGKriLi19MIJyEyd281r3b2OYSKeKHJjJMZS2SbzDYJ6TFGetsUX6tmztXs48SnbG/710qnfZmxP58xwywfewTTQAAEKoxAyKKzzHP/FeY23B0BAXOlN97UfnKscV0zs1ypHeYrNWh1DBONvjM1AntGWkXt1cCDXGTs1w7HFcafGU3tR5BGI0YqE/VGRmD26S/WxBPZRrMNSKi3Ten2MXcRREcm0bNab2OmZrX9ShGrt00hOEqeTLPnvVLfMG/dAtOmhJzeNqWGNGrO+0qzlvU6se6f3q75SkecK0NVNc160eDyhsb2D3ltGPR7T2D6go11Gtj8stXNzXrc0oCs1BXHKjmM2DlhRlM2Vhx53kuZNffVaWZfYNtbr2DSY0zvcYbNxTbvjSvMgi+ZY4zZJ4y1wpcbn2Yf++LEwkQEq3RDY/YoIdJgI+1fBMvfGBK6ZFYbVY9WlukLG/7W1p5m3Sb9jzGjFe1+faYzTZvqHEN6jFnXPNT5IAJYhAkEQKDYBEYh70yt69e7ZtQ0JK8JxE7csF9DInuGLeGr2GE9YFuXE3GhjymQT6f3MFuXW8JXxhMd5vGdD9Kcb+CuxBJvrLpGmaAn5PO7tkT0yipdwboNVGUZnDRJDRMfbvxxettU9qoZvcFR9Q6ppATiC9a/LpbIndZpVV8llrV9P0WBv3OJiWZS7+PQdDlZfEU8kdX91HrcOVrS1uRf4eYtYyGn6yohMSf2TUW3VHT/RXJY0eW6LPB1J22aYn4rTqjzKtbji/6O5hOJucvRZUtKoE6cc4xPW2tqr4on2q9uKOAxsBJYUxKRscbcx4TpIpZhxnIrQLsQfcIJdVwx0kcJTeA4rvvfbtMX1jal7ek0Etq7ABP8XPQs06aqq6uuMneWqW/6k9nVXGvXr/jmEwIwAwQqlQATwleVuu2H9HvGCZlovDF3EvX0XKMH/ks1z9cOxZQhKwV35Xv0gH2xkHVFw4QPXheb3/GB4LriY8ubJRxvys4bS9nrmOkyETIDpZdB4GpP5urfobr0Eg2OXhFryl0Xa+oI/Emh+uO7NG3epvqGRO5Esu1rmJzL1EDzQoe99bPcEuvvpbdNOWJfGWtsv27mPHPnaLm5CX8GImCCFPFE9lw7FLqGhE8ikRLdUSj7sliJeEDHw5pxwsZoTPe3XV1d5lGuS7TfUvwg30AbyINlzPxlIr5YunuujSXary+nN5oyiRmb8I1U5ElIzn+FpvcfC2tYDea3Z9qUZXf3timN7GgwdNhqQS1wFnd2X6sX3ubvHuhDACuomxR2gwAIgECFEIg3ts8NVY29ntgxA8POUbejmisgyXuE6Tx25Mp4Y/bmhsbceyvAaVdcbGhsPyGeyd1EQmag3FNVaVkGrtSv3dN7NfJwAYtzZTyRuymeKM8xZnZ32oXvrCcVx1VZXdfrScklqu9ooqK+OZD8OjHTocx8gWNZ5o6sc+OJ3Jv8aivsGj2B6QtW1VGXfYNKulizeRxWP0qZ5P16Mefd+WnwR6lZczsm6+/gJivcfQOLXECjHhPMH37lZYUGNJn4K+tsc3zRY2xelfxbaPq8bFyti2ke9eN+KmOPZNk11+bzVsLZx2YnmjZlfnumTTFROQeudnBioQWWWJescWZd2T+IhQDWDkSYAQEQ8DuB+Nz2t+tVv1uLnRsS7RfG57e/fdZcvA3OT22gIdFxvNnW2vm7ZNuVy7J5VLBAzPJ+ZXCOBrOuamjKXdAwL2ve1FSgDBQ3BGKN2SMbGrM3CvMlGrwyjyzvY5ZXYH4fkZxL5FwVbzID1q8rl8dwXd+UsUTui8rwVj2puFSVmxN6c7KjswFMozJZTID9Am1T18Zw1+ioSPqx8v6N6yaYvlKop+ZGPR6bk2e3Xmhh6cmqJj9S2dWmA+ZIdbxx3aeckHMTmf1rJQWudkWhh1c6wzCIJ7K3xpvaL9ptdWC+hkJ0lPa/DiqVwRqIOuOQWhq0fZvzknhT7uStY+hmw3P7b69U5vhVbpzFOmttz+s+RiKKjAYH5lcPYBcIgEBlEDAdpYam9jv1hH1HJovNLbNnKYGiZiE+n4SutUOTbu+vL55oP2WfplenEiZXCcw+XWriiWyjiG1OCHVb8+tcNcC3yuQwESsa0UIAABAASURBVDnfYblh5ryseXzHt5b6zzBhExBlosu1+3O22ref5qKnAAp8PwlfTFbo5oZE7j0BtN8zk+saZUKsKZsglktJyARDR/xmKiqfKUrE/8eOc7U5fsebchooJUwBJ7DvgtykzWzd3ttXYprntjtC1jtmzF/7Frf1FqLPDDi9aVL2DmFuFqKyfVSwECbby55Fwudrn+4Wam62ti8LzAcTH6zGenKBJzYnPdYOTbydRC5iqow7rpT1IElqiJ1L6QoKmQKBa0jGaGQQAIH8CQjTRi2d0RyIVN1ddUM8kbtXiM/VQPtpInJ6XyamUr31aLIeYFW2nNiny3wS8QU90nm7scfkhsaOE6YeLxili0o2UUOi4/jO19rvUQ0XEzOCDApit1TLzJ/UINa12iG8StslHtfZDdDuXxsas0fFG7N3CTmXEJO5ktrbAdq9XOV+l9dpB/kYIbm2IZE7MXZS+4zKZZGf5xqYOWYs5+5i4aIO7Juf9kCUeq8ev0/XdnWNsnpfICyGkXsQmL5g1Tg9xlzd7dCdutLcXThZPz1IcljICb/TA8XDqzRjKSbWfaG6quou7UeexNsCHsPXq6wSk4j5y/HMaffEm9qvqSzXC/fWjB+m/btbeOLYu7W2GUexQu/qVe93TW+LpzuUiTACWLuCwTcQCDiBPc2XanlGl35Dc1DSXCI5WY2NaGbNXibz7PsXttkjJws7F1dVd9zXkMgunNmYPZKaBfvQIm6dhkTH8dIbZLASKnZfzUiDEWD+gP44ztATxJtj89r92bEfzHYXl8ea2o/TIP5l2nk2+xTcITM0+/cL0QXczXfOaMwGasyZod0q7tpYYt0X9Xd3qUr9EpFgP6UghkjvU1bXNjRlb5w1v8PXd9AM4UNFroqdlR4b6qm+j8gxx5kTPIYw2SFnksc27KG+N9CQzj1AZF1KTK7fmbaHQX5eIBI2AT7NX9YLSrf52VRPbZsjobU9pk3RaURsgsaEqT8BOZGaiXHyRbtN+AoCZUYgMy36ihA/UWZueeXO65lEgyw03yG6PJ7KJmON2flTj19drm/Dc4Vz7KTNM+KJ7FnaUb5YFSLIoBDySUI0gZg+wiHrhrh5S5NeCc6nXiWUqWtcNyGWyDYRsWlTB5KeYWhGGpaAzNIin7OYr5/RlH2XziNtJxCbu/qgeKL9EibrEiIq+hupVGa5pveKyKk9jnMzHn32/yY+ZME/qhoS7TdYG8cvJGYNXPFe/rfaAwt7Aw3ZFtVsggwYl1JB5Jn2IpaTGxqzd5g36uVZp/TFfKDBXIyMT8y10LZgaLUPTPKlCfFMbg4CWL7cNDAKBIpIoJkdZrGLKBGiDAHzKBLzXGa+oLqm6v54U/unCXdkGTIF5fi83DHcvfUePWCfI0T7F1QZhbcREPmAUOj6WDp3M5FT8R1p81scy9ZdTHwhC71hGyT8L4yAvN8Suine2D532rxX6gurW36l403ZoylUdRuRdYZ6h+CVQigs8Tgm+qBj0Y0zcXdfYejcLK1BmXXOvouF+BQhOa4Q1ZVUdvqC3HsbJnYsod4AXyV5XixfuUZYTnS67AcaEtkriiU1yHLiiewStvgm9WGuZqShCAhdhgDWUICwDgRAAASGJSD7ktBnSfjKeKbjq7GmtR8ftgoK9BKI9T7eJZcRyadICOPu9FIZ2T89OXy3ZnPH0T4jk1AeteJNuWNIf4tE/EVtV/sSptEQeC8xXVxl1SxsaFp3yGgEBblu3ASvhC7X39cHtU3VlciXShH7Htuim2c0rjuccMeor7Z5vGndbfGJua+KyLFq2F6a/ZSeZqbn/WBQPNG+xLLlJgT4Rrs1uIaJPi9Ep8Ua2+8YrbQg119r5x5S+0/QjPECFUIe6QAEsPKghCIgAAIgkAeB/yGRYywKXxNrymkQS/TYTJgGIRBrzB3Lwpdqp9TcIQNWg3AqcLF5wUBVgXXKpDiRCV6xOJerQ/9DJBXLQf0vYuLZyvLTItYdDRUYxIpr8EocaVaguOtKIRQjsdChFls3xtPZBVNP2oTH74sBdZQy4ons14ksvQBCXxilqNJUF/qlU1P9h9IIz19qvDH7KBEfx0R4vJqKMilKijBzoqGx3bwooChCAyjE/O4MiwCa7o3JCGB5wx1aQcBdAg51EHEbYSo5Ab16+RYWuU47hN/Uzs7/llxhsRS4KCfWuO5YZrlMVb5eMxIIjJpAPJH7gv7uLhdiPIY6app7CGBd8h6HrDtnJjoO1vmKSA2N2aNM8EpPrkyQvSJ8dtHJtxHxedXdXefNOqnDjLtGmNwnEG9qNy+l+aZqPoqE/HbXlZq1LWl/Ye3KeyZmt33z5r9eIHmUmI5W7XiLrUIochovzPMamnKVHMQqMtLyFocAVnlvX3jnIgE/q3J6qp4QksV+trHMbPsfIv4cMd+4LYgl5gSQMBHFErkv6gnh5coCwSuFgDR6AiZ4ReRcIRhDbfQwh5Bg7pxxyLl3Rtm/TU443pQ9mliu1H0VgldDtIlRrjKBq7l2D73ZvM1tlLJQvUACcXPXlfAJut88Uquij6IQBkvbWMlRuh7nzQqhRGkvvQA8L55ov6tE8iG2jAj46YdYRljhCgj4i8DKh8yVK2eZv6yqBGvkzdo5nEl6JkSYtgWvNNBAxPsRJhAoAoHe4JU4VxIxAqLkyvQuy3EemNHY8WZXtLmtpFmseKLjaBK6Ugh387mAv47EuWKtbHyLC7qgQgnEm9rvizXlfqAX2Ezgapwu8nVikq9KKPwNr4yMJbLf2M4Kd16VZiP0l7oXE38p3th+d/+FmAeB3QkggLU7EXwHARAAgSIRYKJutqinSOICLSZm7ryi3kDD7EA7AuN9QyBu7pIh5yo9uUBA1N2t8g6L7ZbYgtxB7qottTbheCY3h0ybIkJAtNS4d8p/Mzk9981csP6tOxdhLn8C+ZeMJ3Jf1+Ds8SzySRIJ51/Ts5K/t0Va0wsnv+SFBbHG7FLtx302IKy8QFR0nUI0gZlP0LZ6DxGeXig64DIQqL/J5xHAKoMNCRdAIB8CYSv8LBP/KJ+yKFMcAnogvtuyxvy0ONKCKyU+b90xzGTuknldcL2A5X4i0DA/e5T2ba8mMoOMEybXCfDb2JbFepLxJtdVF1vhdnkz5uWO1BNVtKntPFz+OMTpsetc1lkx6uKN2dZ4IvtzdfizRGxe9kEBmLo1gPGHnm77b17Y2hu8Yvq06g5CoE/NLJ+kfecJTHK8tlnciVU+m7VonjiOfAkBrKLhhCAQ8DmB7snPOeL8zOdWlpN5eumIn1+xcPwr5eRUob7oCe4XyApdrSeGCF4VCi8g5d02syGRnSMOXacnN7ibz234u+o7RE80HmqYlz1g18XB+6Ynq0dallxPCIiSZxPLKTPmb3y9Z/rLVLEeg79GTEerex/WfWa1fgYhZUjoejtk3b/m4WmvuW2wHmO+qRfdTPAKb7N1G/52fXpsmSDEGsTK3bN9ET5AoJdAZmb07whg9aLAPxAofwJtS3ir/uA3lL+nvvHwdsvu+V4e1pRtkd5HvERMoGHfsnUSjrlKQE8s5gjRDaoUbUoheJ30KvnBYvGjsxZsfIPXtoxUf6yp/XPMfCMRI8hOnk4f5h57b08tKCPl2++6+h2R81l1y/djXamN25M8yux8pluq71q1MJLavtC1j3gi+y09xvyfKkTwSiF4mZho+51YCGJ5uR38pFuEPk/NJHo+S5hAIOAEYH6+BIStJ0Xkm/mWR7mRExCSl9uWTFk9cgnBrmke8dIDzQ165de8aSrYzsB6XxAwd8kImUAD7eMLg2DEdgLy5h67++uxEzcEbiyyWGP7Z9nhW4gEAdHtW9O7Dx5nWTYe1yrCBtDg1aPEZN6a9z4irqFgTJuZaaEdsi5MtdQ/sXrxhHVum63B7K+qzo9rrtaM5AMCQtQXxLrXB+bABI8JdHd3/5SIZVsAizCBAAhUAoEJG2tfYIseJ0ylJcDWLTVVNd8orRL/So/Pa/+0OHSVXj2b6V8rYVmQCDQk2j+oJzcXaKABAVEfbjj9rf+P1W0fOWtux2QfmjegSfFE+2eI+TZiQpsiTOVAIJbILoonsn8hiz5DREEZ64o0SLHUCoXeJ45zhRd3XSkrijeum07C79X5MZorIwXES20fJoh1XDyBO7ECsslKYiYLv2/Nw1M3G+EIYBkKyCBQIQSeXcpdRNz74ydMJSGgJ3LdJPLyS/dPWFsSBT4XOvX41eOZrTeqmYEan0g7SP+yyH7rSLIGhY9Wf1dpRioBgdmnv1jjMB2oot+sOUCJnxpJezJ1dD9i7p4IUptSk+UsCQfjETA9EXqTCB+rRgctyJ4y7aPgbNF7dB93pWa8FbeIexA/iWpI5B5mkmPUpneS0Fj99H8S2qK2Lhams1csnPxkurXeu30eW0ndH0z3P7QdFm7VuQcsxzmk4P2B9nWU+9e0r7pFZQQi6b5rghr6vzMa15pjo84ilYCAGbP36pG0pxCH360XGL+rNul5pv4vcrL0GJZqqP0TEWtTII3REyYQAIFKIsBVoe8y0xWV5LO7vsptTvfmx9zV6R9t1dWh/xOWM9UiX18gEZHvOGK9RWz+H5MtCR25IjnlnyPJVnfk+7Y4Rxg5vVmc44TI9bE7lHlZpq4tkf/TLsuF6lyVZh8n+a5F1lt724C2K+rpHnmbsjf+oH+bImI9MeU28vGkJ6FTHOHvxResz3csKY+80T0U0f/ocfCjHhlQgFr5NrPztr425VhVHx7JPmrFjMhfrOrQ7Ux8cJ8sPXmdp4Y4mpECTCDWmH0gnsj+S8Q5koLzhkEi4u9yiN4ecuyLVrZEM+ThpAHt76v6IzT7+RhjAgMP9v1+9cLZ26qrqi9bsbj+yZHsE4iccznEb98hj+hbxBpQVAj+TTKTOXSU7rvYvzYGyrI/MvGn+tqALVWHC4VvG0l7aotN/JtU0WlE3Yf0yVMSt2lu1zyq5Agdao5h1Mw7jle+PsEgTCAAAkUnkLpvcofj0MqiC4ZAvS4gvyayvr/yoVi2EnE0NK3/PBGbA9ZU8uGkQaXnWU8GLZYDQmE5dWVr7VOZJZH/mJxqnfzySE1uW8JbV7XWP2/kmEybtn6bQz1HGD1Mzkna2SrRW5RGanFw6sXmt39WhO4k4mnkz+lpsuQdZltbITllRXLyv0wbMDn94NSXRmpy25J9dmlTIbv2uxTq/pDRo+14vsp9VbMf035k2z+f2bTat+OUxZuyn2KSmxXeXpp9l0Tkt/3a1GmplronTXsyeeWiiS+MyOBmdsyxP52MPG3kmGyHu74RClUdaNqUBvNOHJFcVPKUQLwp96Buu2PViDcTczDuuiLuFJZHrFDNKalF0WfaPB4rdFvwSj6iDKs1+y05rIEl8xsN2fJmDVidb367Jht2o7nT39ztZmQYWSZzyDnddpyDjS5i+iURd5P/pirl8dHY/I77/WdaYCz6i/YhPmZpP9h26JjLDwO7AAAQAElEQVS9Ntb+zGx/k1e1Tnw+k5yUG5Enzexk7q9bmU5O23GMcbqrrhHbPtToEpLTVW+qQNm2/gDevbIh8ldS+dRvQgCrHwzMgkClEKgO8zd0R3J5pfg7qJ9FXuEw/7Z6XO0/iiw2EOLiTR2fFrE1eOXHQIP1Acdy9rfJ+kgqVvfPFS11/12xsN7cKl0Stpml8S3phVNfMno6u+yvCjtvEUfeRcR3E6a8CcQb1/+v5fB1WmFvzT5L29tUiD+RnhF9wmzrbW2KdddafFNNkLSvTTmhyKNC9sFkyzuIrFuLr23UEvcVqZq774LcpFFLKrKAhvm5T5KwOfnxXZtyxDnC0f0U9dCxbrSpVQunb25bOPE503Y7O7sf6dVt8cnagO0iY4e4IhOIJ9rvjSeyz5LjzFHRgRnriol+LHbPQd2dPWevWDi+ZMdgZZJX2rup/Y1EYh5P91vw6gm9IvoZCYffEOKaU1don6VtSd1zowlYDQdkhfaJVumFOKNL29WXxO45sHefwPSf4eq6vH48ixyr7d/sx11WHWB1GpQ029NhmjNx4+pfm+28anE0vW1omdL4tfKhidnMkikvGl2dNc6ScNW2fhMzP6ka9VCj/wdMspWJ36vt/40rN0T+TrsFr0gnBLAUAtLICaBmMAm8vDCygcVZG0zr/Wm17pBvCtvWncvu4k5/Wlhiq2wnohpmaPZRsj/A0vO69EuT/7RyUf0LryRrV9AAB0Iq4bTm4WmvZZJTlmVejf6Dq63LQqGqNzJbV5RQZdmIZu6Zqj0cX73ZzgQZ+rep3gGHXW5TqxbyZtOm0rOiT4RsuoodOpCJrvTThtftdobtWGaf4BuzZpy6MapBv0PUIF/dzcciHzZtamVD3e/NfirzUN1KcrlNmf2U0W1z7UMhDu0nxKeTXjInTL4jEG/MthLxCUT0RmIOxl1XIlu0OX21qqp6njmh1fa2Vu33PIWE7xKiBs8N2WEAP25XV72BxPnUhFj0J5kHJr24vGWvNTtWuzRj7s4y28nsE6RLPsbajxKm51xSn48aE7Q9cHrjuv3zKVzRZZgfN9svTDXHme1pHtd9dumB5nHUUWEptPK6e6e82nZ/bZuxQRz7/9Sm2ZpfN1C2uOeA1Mbav5j2T0t5wAsqCGAVugVQHgTKhMDWMfJVIrm0TNzx2g3tm1G2bUnteq8N8UJ/rDF7JFlkHslhL/TvrtMiPlVs+/Xpl575U6p16sv0OPeQ15MehM0jPG0LJzw/1um5RU88vqjZb1c2vaa0Q3/vHX3bHke1diz0cMZi51zHqtrfBBl806aa2TH7nNTiyH83i3Oz/viOYuJ/eoipv+pJjth/mNGUjfVf6OW81Wm/V09Wz/bShl10C33EDvHM+nDbb3vbVLP3+6lVGhxd0TJ5uRPa2mqH2byd0TVeInycZW/64y6M8GUHgVgid1c8kX1Zj7Vf0IXmBF4/ApCYfmkL729Vh79cyjuICiXRkMj+iInerzlcaN0ilN9dxDNkWZ/udqqOWnXfhBfSrfWrnm02L13avZj7301APaX9qJDlHGGOgUS8nHwx8dtDbJmxMX1hjQ+N+KM5vnTbVUeZ7edFIHQwJmlt3yltU4PlFS3Tlg8WuOqT6YuOYZ8x+AQBEHCPgImG6wn0Su3Qb3JPa3lqYqGbt9T03FOe3g3tVcO8dZ9kpru0VESz18kRdg63N762OLOkfhk9frj3gas9iLA831q/qWZs9tvdducHSeTiPYpU+IKG+es/pFxuUQxRzV4nh0k+1G1137dy0YQXqdn7IAPtMbG0a5vaa2Pkez2h8P8y8QV7FPFmwXRL+FPTF6wa5436nVpnJnKfIHEWE9PEnUs9mmP+rXmkeEp4+W/MHXxPLHyb78aaWbVw+mZjmx3qfIA59DYl1aq5pEl/Z+valuxj3qyWh57KKtKQyC5kloR6vQ8JBeOuK6Kt2r9cKhI+2jyqZC7gqP2+SLM1sK62zVRjvB60Xc2g33U7XYdPWL/qp6sXT1hHpD1K8t+0YmH9K+YYWF1V9S617llth8Z2nfUqSY1ehD/a/Da8ssCfevlpy6p6j9Nd9WmzD9/Wpvxp6WisQgBrNPRQFwQCTkA2bP46C18fcDe8Nv/mzu7uK3oDgl5b4oF+CYXMq429fyRHQh8Jc830zLK6P2SWxreQTzuBtH1adtd+nasX773ODnfdHhbnDYTxsWjHZNsaDBXvBwG36KNh7pmeikd/u0pP6MnnberZpdy1auHEdmdi7Z0WywEkMnhQndyZmOR6y6qudUfbIFqaxXKc3sCVt3aoecL2J3jzps+aR4r9GLhSE3dJpt2nNvz8X1vEOVOEz99lZRG/sNBNVtjBHam7MY1vG+tqtUYKjteAQVACV+oF/766qnrmmHHUNOJBoVVKqVInkQlme/z4mfxNjy9785bQZ0xfwIvHugrny2LuonO6t7w/bPWYcQRXFS6jmDV4jDBPmb5APL9IUkyvRiHrCad782Er1k/468qHJmZHIcf3VRHA8v0mgoEgUDoC5kQ/5NTeqlcx8CjhSDAzfU0o/MCah6e9NpLqQa8TT3R8Rk+SF6ofrNmzZMaQSb886de9t0g/7s4dMsVy1pwgLk/WvWCHtn6Fma4oltygymlI5P5PWJJqv7f9E4c+mp4R+dXylqlryJd3XdGgU+Y23rJiUfQ5DY5qwEE83bfrifcE7ub/zJq71rMgdyzT8VGyxOynBmVW6hUayNtEQh/JxOp/nnp0Zsdwj0eU2p6C5C89yjZ3+IWdDXeRxSdr3Zzm4iZ2fr9i+j2uj/VTXCeKKy2eyGkA2mpUqVM1j9EcgMRdIvLDmq3ySRPoWHZXdKPfjI4lcj/U3+IHNHv56OA/asbxh83xJfXo5A6/MRrOnpUPxbLL9djI1aE3EdMrw5Uv6Xqhj4XsnHkKoKRqfC58g3bC76gK8QfNtgnU8WWEYC1qZkcdnuy3XDM+ciPlOdmhzka/2b9ZnLfnaT7tG6/7id/sN/aseLXuqXx9qBlHM0wdP+WQHcn70RzZ8NrZfrLd2FLdSa4MXmzebuV0V9+nB3PzyE6+m3y05cqhvhn36qVMfOLL5eBM4T4Ik9NjrgjvVXjd4tRQC3ocDn0wtSn6GwpY4Ir6T8xiAlnVY3PXVXYQS7QPJnqixp61KQ3IbmEr9OH0q5FfUsACV9R/2t6masZ13KRBpMv7r/Jgvta22JOA5KwFG9+g29QEATxrU9qoj6Itr81Mb4r8igLcpszjfVO4Nqn9k32J+RIq1sT0hZT2g6m52SmWyCDLaWjM3hFPZNcTyXzNNYHxhenvVSGa4oS7jl72iP8CV30cmcQ8mu7Ro4OyVfcHS7fW2If7MbjXxyjfT/NY6DjH2Z+Iv6u5mzyZpFp/J++PN3bM9US990qfqdlKDZa98YKXF0Y2eG+OOxb0diiMw37Lywp4k5fp+PvNfnO1Kt9N+Lh2aAq3P7Kh1HUKieCaHXGp7SlUvgnM5LsNMkvjWwqVX+rybnYAOGx/kZi+nC8vlFMCQrdO2Lj6Kmrmiux0awf702TxYvJo0qu819vSOXtlbNLjheyrPDI3L7XmscJ6K3INE1+kv8cteVUqo0IN8zs+oVHhhz1zyTxyF7YPSs2Y9OtyalNTQ5HrhNkMduv6m4d2bEu2Xpw275X6Hd9dmhG753VM9BnyahLn06mNkW8H7q6rQXg9sZC7Td9nilV7IxUjiKXBq/SGyDdJ+8GEiWIavBKmUxTFJM0eBVlUc0GJO4X5e7Jh8wdM2zDnZAVVd7FwvCn7C1X3Ds2uJxF6TrppdvW4yPHlNORE75ie42q/0NXVVasXwr254074dcL2B13fqJ4o3EXpf2Xj5reb88W2Chs/sDeAtQsKfAEBEKgYAg2J3IkaiNhC7NyqTgeks6SWep9uTTdELgjGmAXFh2VORPUq5sFE7M3VYT3poU1brnwluXeKmssrgGhOEFMvPXUTi3WiXlV8kSpkavji+lpy6ADyqE2JxceZR+7SC6e8TGXYpjLLnjJvKTyOmLwaZ2ic1LDGksi1aUbjusNtkQdVYUiz+0msT6cb6n5YLsHQ/gDNfiq97KkbdB818kdUmb+YjkWWliOf/qzymY83Zm82fTH9hZyq5b18tE3VF5SeDtkbJk+1aueYC8EF1fSisNAYIvLi3Pe/YSdycOahulWF3KDhBaKR6DQ+maE0Qs7GqXqMeXUkMkZVh0l/OnxUPNF+76jkBKvyCzXjcgcH4ndXAq5e/IhL4AZEggAIFEJAr/Il4olst5CYnf0YJgpSh6kQV4tflun2dDxyHlXwFeOqUNWhQlbxHiGhQibnmJqxue9uO2izFFIzMGUfP7wn1TL5qw7RVXqCuCwwdo/G0Jru9+j+6LrRiBhpXRO8GjOm9pvb7hwo4zaVjHzTEXMnlvxjpKxGU6+6p3rljBMy5vGd0YjJu64G2cfoWY1r+nYxjK3PpFsn/4CayyvATkS0I+t+Kh2PXpuOR6q0D3HljuXDzDBZJ5g66UW1X6dy5kP5TdoXu4mYztLSYzR7E2xVxQWmbi3/i/TGyFvMnR8moKnffZ0aGrO/UgPfo9nlJC+kN0YO2v5USHn2WbYTNW0hvSxSS0xbti9y86Oa2BrvpkLvdMlL2qYOMHfte2eDt5otb9VDOwiAgJsEGhrbT9DOkjBTi+o1QSvsAxREvkl7HnekW6JnUXMZn5TQ0NOsuTKGhM1JoettR9vtiV1d9g8q4qDNLCuTdQ+bNqdBrDVDb5Vgr516/OrxZIVmqBeutylle6l0hn9qriCrfjeShzpMm4r8iMky+3/33x4losecieTGNHN+9lBtU/e7oWtPHfLZdEvt94hYf75U3pM5FurFnFQyenk6GWWTmfjG3Z0WoQVmncmpZO3DpHVI93FUwVM8kbs2nsiaNnKuYvBg36daR5R4WToZrdb8v0G6e04vVJjgII/I5RFXUlbx6BuDxGnErvZVfJx7tJ88Tr+aIKd+uJhEPqW/Kb3w56JO91W1pZN1syuqTQ3AOEA7zAGsxyIQAIFBCAjTYb8JU7OEGxqzR8Ubs47u1EWYzeMUg9TB4iEIOMx8VyYZPXOIMhWxygm1f1gdNW+J0w/3kvby/0bkPLHm4WmvuafVe02ZZN3dwpYZa8zx3prSWFBVVf1+IfEi2PAHKxT+8cqHJmZL45k/paaSkQeI2JM2ZVV1t++7IGfG96FSTk4PTWChhlLqGEC2o7/VI/Xk4rsDrKuYRdq+vqLBjd5gVt9npjW6qGIADOVos1ik/TINXl1NJGZcuqFK+2udyBaN/vwonYy48oKhYjofS2R/SSIfKKbMPGSlxobC76bmyrzgqe2kRoPUPeTuNFnVxfS3pU1V58otCWnwKrpPubk1En8QwBoJNdQBAT8S0I7R7NNfrDG5oSn3odi+B62Mp3PdwvQYsf712YzPQgg4JNRFxPemWiJfpkqftI05zB6MOqHFDAAAEABJREFUlcbdQs6VqZb6JypxE2RaIhfqyfgt6rutubyStikm25M2ReLctGLh5CfLC2h+3ujJxSVEcoOWtjW7mrZSuKTbe9q8TfUSone76pTCZLIaZ8cmf58wgcBABOZIqCGdu0T7ZZ3aXC4eqIhPl5mLJ23p1rpxqWT0kz61cVCzDlnwjyqL2Bq0QElWcCeT/P2FhRPbSyI+EEK11yL2na6byhSLNXUc5Lre0itMp1sj+5ZeTTA0uPyDDgaU4azEehDwnICe9JnHbvpy/Slr95qZ7vhY5+bIVpNF6OfMPMVzO4NtQI/G/R51erZM15O904PtSnGsj6U6PsLC3yqOtHylSKd2PT+3Mln/o3xrlGO5VGv0fGa6lYjdvy2fSjfFU7kPEVvfK52GgSSLnkA6R6Vb6ys62JBO1l0kzDeRy20q3NP1s9hZMpZKNFVbnf/DQpeXSPzAYoVWiDivPN7Mbt9xMLA9WOobAiaAYvpqsYm5i4XoCjUsKOdeai5tEJFvp5PBvetjXc8+jwrJe5W7W0k0eNWWStZ93i2FftWTTtafo7a5e9e80IcskdNUb9GThwINw9uI9MhGmAyBoOxEja3IIFBZBER49rHZifsuyE3aPc9I5d5ZXVOdra6uetXkMZ2hTQ7JDysLUCm95S6VnkwlI8evfChWUY8Xqd8DJ716zOz2WwdFAw30hdSiCNq2bpVUS28QyzxqZ04sdEnAkwbiWbjaZS+6RMLHppN1Ff2YVx/zTEvtRXpyZ17m4VqbEua3dnauM+PR9JlRvM/DfhPWE253B/I1j1YxnZ9ujf68eI5AUjkQOKBZqtfYs86uqq5az9uCV0FxywRiMxq4mpxprZtTJKM9ESNMZuC9KpeUqzp5IZWMvsElfb5Xk45HDP8NbhqqB7Pq2Jx0yS6SuOmL6lJ3+JV0MqoBLP2G1EvAMhsYOT0WDEbH4JAF/6g6rFnCA2XS5b2trdL+HSbhWXNlzP6N6yY0nLy+NpbYEDFvYJpxwsZoPnn6vOz+XWPlxW5bcprX988W059IpKbSkLrgrwauZI2Ic78eLE5yQV9gVMQntB9M5DS7aTAT39Dt1PzRTZ1+1yUiKRZZ53c787Fvelv29Q7bp+RTtlhlNAj7gCP234olL/hyNIRIToZIXH3UpaonHFGdXGx+sX3e9B5y844+87Ytthr1hHVpsX3ZUx6WBIXA7NOlxvT5Xk13nMPE1zNROCi2E/E6PWP+vvaB3B5Djoo9mYvATO4Ne8BC61LJOgSv+m/IZnamhCL1xK7enfolnjT+1v5mBHRef4q0PJ2MBG7cuVLztnji2IuRwWC0bWCtM+vjL6fbPzZQnplZ979TT1o9ZepJlZXj+649QsK587YwfV26nRdYelJW1djVZhDbfHIoxP8VYfMYoFXqHQHkkwlcmaDAV9PJuml6xfEMMNmdgKUnnPTm3ZeW8PtGYevJ1YsnmO1SQjXBEp1ORm8my3qQzIlzsEzfw9pwiGYwWx/bY0WpFhBtdBz57arF0XTpVARPcjpZf7MIJcnFNhWyZUVsTmZM0WmF1IuiCx1CoPCt3U7nr4YogVUVRsBcEO/cnDuFyX5FSK4NjPu9433KqnQyMiWTjB4ZGLuHMLRzjPa/SQ4fokgxVznC5OqFgGIaX0pZT7zwuOgx5vel1LGHbNGtscfCYC3Q6NWrVqfj5uOvgQGkJ8Z8MREyGIyyDQh/V8j6/kDZkdCPqrur1lRaJg7/zBG6Upl8nETqtFttHmsI0FU4qoCJzSNq2snkx6aEojPSyWiiApwu2MUD5jxTzUSTC6448goixCenW2q/N3IR5Vsz1RI5X6/0fjXQHjZLWIgmuOiDw8ynZlqjLo/h5qKHo1ClQfuLSOihUYjwvKoZV8uiUMxFQ9YTy39WL94bQXYXoftVVeys9NiZC9btzRPHnao23kok1foZlLSKyXosnaybQZgKJ6CRSq30vPYhD9RPpN0JPH54T9je8HFd/Ipml5JMmH7MqjqXlJVCjVgkq1Z8td5FZqVwozQyNYBVGsGQCgIgsAcBLPANgd6xlVLawfxuV1dmv0wycsITC7msBscuJurX9pr2Nr2WdXsxZQ4ja7VF9qZhylT4as5p+zUDewaSQ2xVxxuJ+SL3jOeXHacH49kNDlzjiaJtil4dvEhx18jkMXFtwxobL45ca0PHIXqZ/+HiSBteigI7L90SfWz4kihR7gTMIO20cWzCsa2X1debNAclbdb9cCodj8RTrbUnBMXofOycNu+Vet2/uDMOEtMmrg69Jx+7KrVM25J9tm6tsV/vnv/8xdD4Mc3u6Su6ptfwOOrgTAMWwBrcEawBARAAgaEJsK3rO4hYO5j8nXRLZFY6Gf3CmoffHNggALk0iSWmE7i3S+o2E/HZqWT9DwjToARSycgFeuLxdRL9G7SUj1d02xG1/O2uWCiyRcRuzrRO+Ykr+gKqJG3eSij0qJqvsRn9X+JkOdZzhyygQN6VrIGytZbQxhIjgnifE5h6/OrxM5tW71NTVTWfie9Sc8doDkYSaiPhJekNtftSMztUZlOVVZMk4sOo5FMvu7bUfZO1f1lyZYFWUNVTb9pZW+FOVFwNcwwGpyE2OwJYQ8DBKhAAgcATsFlorXrxgl6J+4ee8F+cTkZel05Gj9F5c4DQVUhDExBWVq4dK3Sj/Igt+c/QNmGtIaAbZhlxb/s2XwOUhS2L3QtcMP+EnNC/AwTIM1P1t5ciYrfuVGMq0mQGzdZ9/PQiiRtOjFhsXZZqjX5juIJYX8YEWPaqrqk+wZGqZ/UoeZuvPd3VOA28yjI73HlgujVyKi1lc3Fv1xL4VgAB2Zze+Ku3FlChYouuWsibq0L8FtcAiOw1a27HZNf0FUsR01Y9TzmoWOLKUY5rJyXlCA8+gQAI+I6A9iPJPHr2X7XsvyL0V8dxztIDwf6a35Vuidyny5EKILDvgo6J5JBb4zr0WCI/TC2KPlOAiRVbNNUSuV6d/ymRhmkpONOsuesnCbvVieUuYvphZkkEQdE8mki6pe4aEnHt7sds12vRPMwatkjXlvY3iUX3D1twhAV2q7ZSf3LZ3Zbha6UREPqQ/lbuVbeDc9cVyYti8f0he9NBqxZO36y2l2WKJTZENKBd+u2y7Q7ol2jpUQgC5tmSNvbY5i4svaicZ4VRFGOmj9lhJzEKEV5UFT13ed4LxUHSiQBWkLYWbAUBEOhPwGGi5/Xk9D87M/9TO5SLNVh1gMmZ1uh7MkvqzSMx/ethvgACXd32W4TJlavL2hf8j21RpgDzKr6odtDMbeY5n4PYxTzHkjeR0M27LCzRFyZ5QuzecWlKpKEMxbKsVK/Way55skNbL9UTTd2Vj06VTVaVtqna0UnJr7bup25ItUS/mV9plAIBXxDoUCueFap6V2ZR5CttS/bZqt/LOPWcpsfGN5fcQZZOp3vLB0uup4wUtLfWb3K6qw51wyUNBE3RHHdDVxF19GSS0YOLKK8sRSGAVZabFU6BgI8JSO/J0b+F+J+jyXrG81enauwH0y3R/9mZI4ekWuvO8LH3IzStQqoJ37eype7XFeJtUdzUE+lm7aj/tCjCylCIiPNQZnHtb8vQtZK5lE7WXUrM3y+Zgl0E8ynUTLo7p6BMGWZeFxRjYScIKIFnWOiOrTX2OzPJSYG62KG2jygx8cEauJgyosqFVGKN9j8Uw92YhTDTslWWbevHi5qR9iAgT+2xCAv2IIAA1h5IsKAsCcAp3xDQoNXlXV3dh2aSkbeOJqeS0UMz948zdwr4xjcYMnICTLSC2cKJ4QgQirIjZnOFfQS1y7pKSqywGQOvrJ0skXPmTsj1JZJdVLEHzJFqi6ypRRU6iDDdT92sF0zw5sFB+GCxrwhkRS8UWiHnw6nW6BXr7p3i2htGfUWhdMYICT1ROvHlK7nttcmbJBQ+3g0PNdAxrv6UtXu5oasIOpx0PPrOIsgpexG6XfPzEaVAAARAoBgEQuL8c83D0/Dmv2LALLEM84YlYmt2idX0iteO9o3p+GSX7vroVVk2/2xrqxm36DdBcCg2Jz3WYWpww1ZtUzdlWiZ/xw1d5abD6QrfSsSPUwCmTbUb4izO6S6Y6jgiZvwWF1RBBQiMisC/memusM1HrFhY/8qoJKHyYAR60sno+wZbWS7LS+LHUra7rS3LSyJ7N6EicsjYTj58t8X+/drMOMbksXUQwMoDEoqAAAgUhwAT/asnTLgKWBycJZdSPWbsAcx0fckVGQViO4QDN41kWrVtMN7ukdR1u441edy+THKRO3pNP5DFHV3lpWXlQxOz+tt35UJDbFXH6F4S0dUT0Y3swjg0/BxTaAVhAoH8CbhakkXMHad/s7j7M6mW6BVtS2oDcRdlMSHF5m7Yj0gixZQJWcUnUMNjuonp78WXvJtE5rcKWYftttSvX//oV8P8ZpflN4NgDwiAQPkSEFsWrFxU78rbR8qXonuesW3XqLY6zaVNzC+RFcZV4tFQNgyJfT++iS00Qd0cXcBCBQyfRNtUCI8YDw9q0BIijnlBQMkfTWXbWTyoEeSjNSLJdGst7hL10SaBKbsSEKZFQuGPrWiZ5srdLbtq98m3UPdlaknpBwln5ljTusOQR8bA6ZY3M7vzMhdtD4FI6WT0/YEw1AdGagBLyvxNFD6gDBNAAAT0gpg8aVvVG4ECBPYg4Mi9U6yXfrzHcizIm4BTE75VSP6yR4WKXcD3ZGZM/l7Ful8Ex61OuYeJ/lwEUcOI4EOGKYDVIAAC+RAQK9NZ09mVT9GyLcM8Rn0Lay5tEgmzWL9BHikD5zfiEMYTLG0rLVvplnZO/lu23sExEAAB3xAQCZ29qmFC4N464huAZWyIsHQ9sfBt3WXsYsldW3nPxCwxbS65ooAo0L4NHkkd5bZa8dX6V4Ro0yjFlEv1nP6+Ku5xrHLZeBXjB8t9Y7aGjwvQoNUVs2ngKAgMRYBJnh9qPdbtSsASCgVi4Nddzca3ABGAqSBgCAhVWVupmR3CBAIgAAIgAAJFIHDIAqkSyyr9Y85Ev9CjF+5wLMI2g4gSEzBBrK7w8VOPl/El1gTxIBAQAjJ2+oJV4/xsrCN0oZ/tG4FtJa1ikXT9rKQaIBwEQAAEWH4n0lXysVQAOoAERF5kokwALfedyRaxGUfMvy9JaBaLyTGPd5SaXRsJGRal1lP28pkppU5u0OzLtLanvZ5Zjiq1cULyZGpx9NlS64F8ECgKAZF7q6uzX+p9k3BRBEKI+wSgsVgERGh/7ql5c7HklUJOpiGKIQ8KAGtN2NT+eAHlURQEQAAECibAjnUJBm8vGJunFczVWz0xfEOpjRDmr26tcX5Zaj0VId+ib6ifz2n2Zdp3VccEy7HeUnrj+Js94apfl15P+WuwHesR9fI/mn2ZHHLqSeRoXxoHo7wlUPHa+Z7q6vCX/H7nScVvJgAoOQFm663an8UA6SUn7Z4C69kDD+hxTx00gW3pJbIAABAASURBVAAIVBoBJv6N5TjtleZ30P0dU5NtcEhOLLUfFtGGdfdO8e9dQ6UGUET5qYWRPxCxb+9m6+rqmSJMn6NSTyKvrFo4EfucUXI21Ve21j6l22y1mS9ljp3QPmMk8sN6ZkLMY0dSF3VAoNwJCPGdYXvMBw+YI9Xl7qvx75AF/6hiR0JmHhkEdhKQyRZZkZ3fMRd0AnruEHQXYD8IgICfCTiOfUXbkjrf3hXiZ3Ze2uYw7UXEBxCmkRJAvd0ISFWVGZPloN0W4ysIEFXTkT7GICSW+Ng+mAYCAxJgopA23ouyY9ZMHrBAmS3MyusO1IB2fZm5BXdAAAR2I4AA1m5A8BUEQKCIBJh+Ga7iNSOTiFpeEnCEQ6rf14Neqn1IASJgddtVam5FnEipn0gFEGDH+ngBxd0uupEtB3eJuk0d+opF4F01VVVfrIRHCXuk5zMK7Q2akUAgSATSQTLWD7YigOWHrVAqGyAXBDwmwEQ3ti2MPu+xGVAPAiAAAiDgZwIsfr4z77/M9KKf8cE2EBiKgDDdFuqpOWnWXHHjJRpDmVLSdRoIb1AFkzQjgUBgCAjRt6mZhIo1VYAcBLAqYCPDRRDwhoC8KBxeT8TYKRMmEAABEACBIQhMG2Kdx6vkSWZ5xmMjoB4ERkeA6Rbbyp0y+3SpGZ0g/9YWFnOX76jPbf3rISwrRwIh4l+Uo1+l9Ak/8lLShWwQqGwCDznV/HJlI4D3IAACIAACQSbARJkVC+tfCbIPLtsOdX4loEGszs2508t1UHfm3qEPcG7r1/YHuwYkIGFZTrjYT4VMvT9yPTivKKQSyoIACIDAMAS6WegvK++ZmB2mHFaDAAiAAAjsQgBfQAAEQKBkBG7aOKHjjEMW9N6tVDIlnggWMue1elrriXYoBYEREXB6wiV/0++IDPNxJYuaSYR5IWECARAAgeIR+LbDVW3FEwdJIFAAARQFARAAARAAARAYkACz3LjW6WiiORIasAAWggAIuEZgamjiJteUlYkijVSzOCQPlYk/cAMEQKAIBEYlQjQoTrQkk5y0bFRyUBkEQAAEQAAEQAAEQKD4BESuiddumEUk5XTHkigok/UDCQRAoFwJaACLaJoVWVOuDnrkF9SCQMUS0K7QN8VyMPZVxbYAOA4CIAAC5UNAiMdNX7BqXPl4BE88JPCs6n5AmK/XwNFfdN7LVEuOfSHN6X3szks7iqZbf6s9ROwQJhDwhgC0ukSgN4Dlki6oAQEQKHsCLJbFD61cVP9C2bsKB0EABEAABMqegBDtH5aafcreUThYUgIi9CcmahYKX5RpiVzIzJfp9z+XVOlwwoUSsYm5i4lETRmusBvrR6eDSTSApaRHJwa1y40A80sizn/Lza1K9gcBrEre+vAdBIpOQB6zyUbwquhcIRAE/ENARDr8Yw0sKQcC2qba/eoHi7yFHDrAr/btYhe++JHAi2rUAxbLZalkdGkmOSmn3ynVEv0FMV2ukSNPg1iq/4qGptzlxqagZw1grVUfXtWMBAI7CLA4+huTn+9YgJnAE0AAK/CbEA6AgJ8IyGO4+8pP22PktrCIQySdI5eAmmVKQNSvP2ouOFnVYZuEthRc0cUKUOUNAbb4395ozkMrU9xh2TuPkigCArsQ0ODQn8lxLg/ZdnMqWferXVbqFxPEEqFmIvL0cUK14fKGRPYKtSPQqYfkD+pASjMSCOwgIMRr0631q3YswEzgCfQGsJ544XFRTxCZVAhIIAACIyUgjzqWmPEdRioA9XxEIGyFuog4S4VNKF0JBCznRyNxU7rtrcy0fCR1Uae8CWjA/Jf+9ZDHkNAY/9oHy3xIYDkx30+WXJZeXP+1tiVTVg9mY7o18gshvkvXe/qIkxBdGk/krlY7Apssqv6jEKcD6wAMLzoBDc7+iUl+XHTBEOgpgd4AFj1+mE1sB3qn5SlFKAeBohEIriB2+Du4+yq42293y4V71mgH/Du7Ly/2d4d4zAHNUl1suZUor6Fx/b7q92TNpUxSJVUjCjZYUpMT4d+U0rjtssfH5qTHbp/HxygITJ+XjbPQpFGIyKuqQ1XfyqsgCoGA/wn8lYgvki7n6tSiujz2lRq+7d78Mz3ePk5EWzV7lZhILown2q/1yoDR6u19PJNly2jloH65ENCLsMzfH+jux3LxsFL92BbAIt15buj8R1lAgBMgAALuExB+yBH7KfcVQ2OpCKx44el14vSM6E6bgmwS+dTGzPpDC6qDwgMSEMs5hsUp+Vg9y5O1KwY0YJiF414bn9OTtDxO6IYRNNxq5v+lSXu9c7hiWD88AcviY7TUmzSXNOmJ57KRKLBtelVI/jmSuqgDAkUmYO78eYBFLkknI1/PPFS3Ml/5Kx+KZR2ShzSA5OmjhGqvnhda5zQksnN0HgkEgkNgAEv12PAXy5IfDrAKiwJOQHdUAfcA5oMACHhMgIVJfpRZMsUMVOqxLVBfNAKPH95jUXgTlXhipnezYx9YYjUVIV47a28R5il+dfbZpdzlsDPoozTFspuJ3ok2VRyaum9/q0ry7fhP1dXhtUz8qNpY0sRC4TlzJFRSJRAeYALyBDGdZ4f42lRr3YiC9Ctbon9xRK4Uoj97AWKHTpEqteErhyyQqh3LMAMCwSKgTZh+T+zcnFoUfSZYpsPafAgggJUPJZQBARAYnIDIEoftJwcvgDUgMCQBFj0DHbIEVoJAAQSEpIqZwwVUQdGAEni545evimX9vdTma3v65F8nZg8bQg9WVSQBWaNut7IVviDdEn1s1cLIqAYQX9la/xs96b6IvQxisYbiiP9nTU/2ZvUNCQSCRUDoP8RyKTFfnGmpN4/lBst+WJsXgR0BrDHTYo7WwGOECgEJBEAgbwIizL/MJKeM6PGPvLWgIAiAwNAEmsVikR3H9KEL+3EtbPIbgdmnSw0T+TsQuPQom7vtzaVmp5fz36knRAeVWg/kB4eA/jb+pVdfvkyh0LWpRZNHdNfVQN6ak27HsS7UdR4+Tth7EeCkeCJ7q9qBBAJBILCRRL5DITpviyN3plsivw+C0bBxZASsvmrLotStB+hL+77jEwRAAASGI6AduKQlloedrOEsrKD1AXaViY+NNa3D3Q2j2IbxTMeJQnzIKESUVVUhOjKe6Hh/WTnlsjOdm7MJvbL5NpfV+lWdJQ7t6DP71UjY5R4BIW5LtUa/kV44+aVia80srv0tkf0Vletl/6qaSE6JJbK3qx2BSSyOrcbqrkv/I5UzgS517im9sGBeOpAgxzlJLLs5vSj6s/bW+pIPf6G6kTwksPNg3MxOZ439Bw9tgWoQ8JQAlBdMoMsh/k2qdfLLBddEhUAQsC3pUUNf1Vzq9C526A2lVlLW8kU+wEQzS+4j86gG9g+R0602dmgudTqUWDC22igoM1uHutKmSP42CjPdq8pyUHzB+te5pxCaKplAOjnldw7LxcrAw6djuIZJTgxSEEsk9KAye1pzqZOtbOYiiycMRJxGi0Nnd9tVt6eT0db04vqvZVqm/rvUGx3y/UFgZwBr9PZAAgiAQEUR4JYq4j9WlMuV5mxX1YtE1g2V5jb8HZyAwz2XDb52+DU9VvcKJueu4UuOukRIO7gYdHukGOd8IySOuNNHZOvckZpp6nFYHCLZauZLm/kj0uO8q7Q6IB0EdhJYuSH6W2F5mJhHNbbWTokjmeMxLLKgoan9zpHUdrvOmPHZXxPxiN6US4VNTipZ9yBynScMMq31j6xomfzr1YsnrCtss6F0ORBwp3NSDqTgAwiAQH8CTzPLd5cna93oJPTXi3kXCax8aGJWnJ7fu6KSuWlm0/ojXNFVZkpije2nq0uHai55Wrloyr9Go2TVA3tnbSFXBlZl4i81JNo/SJgKJhCbeMTJxPSegiuOoEI6VjuqCyEmKErEN1Ppp70tlrrSq4GGyiIwhLdL2WZHvikiT5Po3xBFS7qKeawQz9P9qXlcq6SqRit82V37daoM8xihfpQ0heKN2daSaoBwEACBAQnsEsBq6Kk3P/qzByyJhSAAAiCwnQATfduRzU9s/4oPECgCAT7Edmw8njMCkpZlvVOrxTX7PzFLiELmMUI3bD2EyJrthqJy08FsvV19atDs+7RKg6LE/HM3DNWT+M/FE2sxtpobsKGjl0C6tX4VkVxBTN4+ais0noiPmdHY8WbCZAhYuk2OMjPIIAAC7hKw+qt7YiF3h+yar/VfhnkQAAEQ6E+AiRaR9DyYScZz/ZdjHgRGS4AtnjVt3iv1o5VTSfXj89o/rVfnR/V2tDLmxcrmDfHGddPL2Meiuxafn/0IiRxQdMGlEqhBUYfEraDoO5lDGK+vVNsScgckkEnW/U0cOYOY/j5gAXcWsgZw97bYvkz3D+yOypFqEXNDhgt3YUmornHdhJFaiXogAAIjI7BLAMuIsKq7tphPZBAAARAYiIAw/zPVOmX5QOsqdFlZu81VVRntqX7LFSeFvlhthd/liq5yUWJZH1JXXq+59In5tGIocZyeNdqmflwMWcPKYPq8WIw2NSyofgUc+oh+cyWAJURnUjMJBWaSGjX2jTMXrNs7MCbD0LIgkFlc91diOZVIPLz7XWqI+CPxptx95OPJItuM3enC4PdcPZb5qz5GAdNAoCwJ7BHAKksv4ZTPCcC84BDge21bfkjaiyJMFUGgpmZdRpiWuuOszCIO7zNrroxxR1+wtcTmtb9TT2bM4xyu8KoZKw8Xg1iYXktrm3qoGLLykBGzxJo99fjV4/MoW/FFZs1f+xYWMW1qnDswNmubYhmtLtuufomY3Rmfx5E54liujA82Wi6oX14E0ovq/s4cPlG7YE966JnZlx4XT+Tu99CGIVWvSE75JxGvpdJPeh7NR9AcwQtDSs8aGsqOwMgd0h/erpVfnl77GnNozq5L8Q0EQAAElADTs6sWR9M6h1QhBMyAqHpC2+6WuyLOaT2h3GFu6QuyHsuizzHRW8ilaVk08moxVLUt2Wer2M7qYsjKR4aQnDimuhptKg9YthM6UqNJb8ujaFGKTA3FNhVD0OqZe2VZnF8XQ9awMphniNC7cRfWsKRQoAQEUi2Tn7BsmS/EGqQpgYL8RGoQyzkulsguzK94WZcaG5/Y8W1PPIRSEKhQAnsEsKiZe3osy5U3BBEmEACBABHguyXsfDdABsPUIhFwHOlRUa9pdiPtZwkdgZPDoVHH5609WoQ/KUSujL8hvSdLVwxtVAFrLQ6Z8Um2FlBlNEX3FaaPTJ+XDcZA96PxdBR1Y03tn9PqnyLmifrpQpKXnphepMcHm9khscy4Ny7Y3aviC9KNu7B6SQT4X1BNX7G4/kkR+xy1/7+aPUo8Xi+gHOPXIJaws4RJnncBTohEDpu+QFy6a9UFj6ACBHxOwBrIPt5apA7FQMKxDARAIIgEUsTyh8z9dSuDaDxsHh2B6qrQv5iti0YnJf/aQnK82CHX7gLJ3zL/lGQOHUrMrr1hzyFOUHOPxfvVAAAQAElEQVSzUywC1Z3ybxE5v1jyhpOjQdijLRa0qSFAsYTeQ8T7U/7TqEo6zMdRM5lAJhVjsqo5o3K+rtmNNJ2YzmpozL3XDWXQAQK7E5gWrvuDEP2ciNeTd9NeTHRMgw/vxOrc4PxcmNOuoGEaH7Jz7owV6opDUAIC/iYwYACra6+tnUKWS2Oe+BsQrAMBECDtp/PXRDb/gjBVJIGXF0Y2iOM855rzzNM0iHVLQ2L9B13T6YmikSmNJdrPd0i+QCTVI5NQeK29Q5OfLrzW4DWWPRLdaDE9O3iJ4q5hpinM1o3xxuz/FldyeUhTLucQOccSmUGa3fGJN2x+ivTKCBVpijqT9QKLPFYkccOKEaa3ETv7DFsQBUCgBASeWMjd2gZv1t/sSyUQX4jIvTSQ9omZiWxTIZVKXXbd0imvkpBbbycNqT9HxJuyrfqJBAIgUGICAwaw1k2p3yxWtzuDYZbYQYgHARAYHQFmvsuye27PJOO50UkqQW2IdI2AWE6XKnPzSu9+DjlTqVkGPE6pLRWZps3bVK+BmLfo73KKiwB+/8QLj+s5SpE1bnvky8X9isxmkmloU7tux6knrZ4iFpux1Kbuuqak354ZMy3mFFND7wm9Ix3FlDmMrGoh64pYU+7jw5TDahAoCYGVLdFMKFR1nAov6gUGlVdommKLHBM5NuvS48f5mmddryX/rdmNVK0Bsw+7oQg6QKDSCQx8YtDMTk/IWVXpcCrBf/gIAsMRcMTJtC2Z4tqAy8PZg/XeEOisln+QxRe6qV2DDdc0pLJHuKnT77qqrM4T1caPanYtsUMn0eOHFe1Rrz7DO7tr/+k4jqttymG+Mp7KfajPBnwSVXeFm1jkE26ysMk+ftmdZILiRVXb3WObMYGuLqrQIYXJPuQ4J8+Y32ECgEOWxEoQKAWBtoUTn7PF+bzKdu2OVtW1ewrrRZV3ja+Ru4iEd1/p1fcJGyf/RUjWuah/Wrwp+1MX9UEVCIyIQNArDRzAUq/Cm8fZug9q01kkEACBCiUgInf2ODWLK9R9uN2PwLp7p7wqNq3ot8iN2VkacGiZ0dhxuBvK/K4jlsidr8flM0mk1k1bnVc3Lyfiot+BteZhfs1iy9V+hp5ZzSSmRQ1NWVwpJ6J4InsusXWWzrraprpr6EXiErSp101tF+E/qT+uJWY+IuQ4+7mmEIpAYDcCq1rrnxcKf1oXmwCufniSxulv+sh4Yy7pifYBlD67lLtY2LyEZoC1o1o0WOWwHqOP0P3qzwYrgOUgAAKjJ2ANJmLllgnrHZIvDrYey0EABMqewDPq4eOrF09w8+qVqkTyK4ExnfJHDQCc6aZ9qm+mZTkn7dO4zrXBpd30L19dDfM7TmeSM4kpmm+dYpQTdg7PHBgr2dvd7HDnk3rF/tJi2FqAjAZx5OSGedkDCqhTdkXjTblTtT2drfzr3HQuxNbhZqiKkuhsZocs3qLx1pK12QHsHidMt8USWVfvjBzAjgAtgqnFJpBJTlrG0vNJ/T2/UGzZBcgbr7+9ozWA45sglh3mBWr/XzS7lKRKL/6+paFp/SEuKYQaEKg4AoMGsGgp2xY5bl9tr7gNAIdBwK8EhPiH3d09P/erfbDLfQJm4G0RZ7nrmoU+2W3xgXSYhF3X7QOFMxNrD3Yc+YiaMk2zq2nMFutJatagAJVmWvXA3lkNzD1VGulDSv2oBm/edMiCf1QNWcqvK0dpV/yk3JtI6EOaXW9TzmZ+ikrYpmjC5L+SeeyVXJyEZmiwvTU+P2t+py4qhioQ2Ekg1Tr15VBVSNugLNu51O05HqcavxBvzPpiQPNVCyMpIXpNbXItMXNUxL6bRHS34JpaKAKBiiEweABLEXTLmG7t3Hj5TLVagQQCIOA2ARG606q2bljz8DRXD/pu+wl9hROwOGxeS/27wmuOqsY4Fr43tt/694xKSr/KQZmdvkDGCVlHs4gZC8zdzjDztdVdq7eWlBXrlnVopZ5g/LmkenYXzjzWIblrnT3r/buvKvfvU49fPZ566Bgi+V/11d02RfR1Z+qkkrapzG28hYi9GMd1b3LkQTyeSpg8JNB2f20bO5Z5LPgVD80YR0y+uROLxTlBWfxNs1sppIre1jA/90v9RAIBECgygSEDWKtn7pW1JHR8kXVCHAiAgK8JcBeTrEndN7ljCDOxqkIJ1IUmPy3MizxwfyrZ9jfiTbn3eaDbI5XNVtjOnkHEp+jJwFhyeZIu595nlx7QXWq1419d+zQR300uT3qVfAoxPxprWneYy6q9UzdHQjXV1aexyOlqxDjN7qZQ6JLMbVTSAJZxKOREfqfHsblm3t3MU0nk4YZE+wfd1eu9tunzsvFYY/sdsUS2bY/cmP1vvKnDjNHkvaEVYEH1XtlfMPFzmku+/x4Cp9m/HB1vbL9viDKurEq31q/Sfb0Gtl1R16ckrBeD39+QyP26b0GlfcZO3LBfPNG+rG9/EE9klzcksj+PJdKRSmMBf4tLYMgAFjWz0032OsJUAgIQCQI+JSBy7xYyb5LxqX0wy1MCTyzkbpaeFBM977YhvQEHoW83NK59r9u6Xde34B9V8cbTLiDiC4VoArk+8dcpGs0Rsaqnkk7PLj2wK2RJmyrRQJb+dzHpCcYUFuub8URH+d+JtUCqYhOy5xHJxeJBm9KA0m9qXjN9ytK3qbYlvNURa62LTWmHKiGeqvmxGY3rKuLlEw2JjjPiTdmM/ob/rvvoJj02zNwjM+1P4iw25RrmZ+f33gW4gxhmik1g2V37ddpjwnOEKFNs2QXKG6+Bo4PjjevfVmC9oheXsHOs7vueKLrgoQWGheR9DYn2igpixRO5Zea3Tt3dfyDiffv2B0Q0i4gPYxr3tFkfb2p3e3uQ9xMsKAaBoQNYqmHcXrSBhG4nTCAAAmVPQE8r7tw6xr60vbV+U9k7CwdHTGBKqP7P2hG8bsQCRlVR6oRD358+L3voqMT4uPKsuR2T486+lxPzRXoC4kHwiihMfIEbd8r0bYY6jvxdhK/v++7yZ1TjdN+NN60t27v7etuUnbtMAwyXeNWmHKpasOyRiGvHljHjs7/WoJl5dMjl5tSrLmqx9e3Y/I4P9H4rw38zm9p737Ym5Fyt5wkzSAN3RGTuutGPPRLrktrecg7dUlNT9XLD/NwndRlSiQisvGdi1g5tfYeKT2v2MPFbieyzqVmsohgxQiGZ+6OriCy378Iy1oaF+X0NFXAnVjyRfUHzaiLZ1/zW9XgzRQGw5h1JSKr0y95mPQm/RcuvqgQ26nNFpUPMBbOm9s81JLJ/0m28eltu/3vD/PbjZx+bnThaGMPuTJbdFdkUcuSB0SpCfRAAAd8TcPQgu2ndvVNe9b2lMNBTAuYuLMumv5LQ1z0ypDZk0Y9jjdkjZ81dPsYjG0qiNt6Y/V/bku9qB/BsVTBes/tJ6Fyx168hjeqQS5NpU2TRf1TdTzW7n0T05Dr0g4b52aNic9KuP65ZSofNnUB2yPkGMZ2jerxpU8z3d9Z06omNXiZRI9xI5i4U/R2td0PXIDoms+18P55Y66u7+waxtaDF8ab2kx2Hv6OVzNh8e+ln3kmIJojQFMeRR2Pzcx/LuyIKFkxg1cLp7VwderP+9lcWXLloFTRgwXRkPJVrKZrIEQliqQqRBk3F/bt+hDSIRe/Tk/jfmnEtR2S+zyvFG9vN2y9nq5lTNe8StNLvgyUTh9hbWNk0Zt0co2wwe7B8FAQaEu0XxhPtL8YT2XVre3KvWMJLdH9vguimTWi2DhaH7+0cwy+bMiY3zFv3ydmnv1hTqFrTcIapw6o7VPLxCoYxAqtBAARKTEBE7g7ZtVeXWA3ElwmBtlnRF4T4hx66M4lZHrJDE5+JJ3Jv8tCOoqluaGr/sp5ofFvjRu/V4KBnQRTpka+3Ldlna9Ecy1NQZkPtM8T8UJ7FS1Fskji0mCaMfTI2N3fQIAoCtVh/G6dYlvV9NfoIEvKsTVlk3bju3nrXXwpSH1rxUxHnOPXfm8SkV5pDP2pI5MrmBRTxxnUnEfEt1OsbhWmEk57hTmBHlsYS2Y+OUASq5UHAjGdas4UO0GCuBpDzqFCaItXaXo6Le/xmwpcXRjYQcTd5MYmY38p7Qnbu+Vhj7kYvTCiFzhknZKLxRG4ZMZvglf6sR6DFsGE6JJ5o//sIaqOKxwTiTbm744lsh54TXEbEryOiOmKKCpF5giCk37cnMfN6wUOiuqDOZLGsr3dujqyJN+auMXeK67K8Uh4BLKK2xZNXCPOb85KIQiAAAgEkIHdPbIieZ8YNCaDxMNkLAs3sZBpqHyO2GgtTX8zSPE6l7aMd87/OaOwI9DEqlsidJg7fpP6YO2TMQV5n3U+hkLwx86B51MJ93bSU7Qkbar8lTE0eaO9TOY6J9+eQ/GXmgvVv7VsYxE/tVJ6sdt+qgSvtMJJnbcqWqjesaJnURhqZJZenJxa+rZussLn7ZLnLqvur20tYfqEneb+b3rhu//4rAjU/R0LqwynEodu1TRUrGDqeib7V0JT9cKBYBMzYZY9EN3Z19WiAgb0c17hKT2qPjze2t3qJTyZGNJgvT3pkQ0j1ztCLb2fGE9mf63ygUzzR/nMrPPZlMo8Mkm5dGtWkMQk+OJ7I/mFUUlDZNQINifYvxZuy/9bjwQJVOlnzGM26S9f/+SfT552k3YPz7JCTmb4g15BPVW0seRTTXxpJz+Y8SqIICIBAqQkUX76502LDs83cVXzRkFjWBJq5Rzsupv3ohRbPPDUHy3EWO3+LN3XMC9rgwA2Jdf8XT2T/oxxv0+5ftWcUtyu2e2QjmWP+9u9ufzy7lLt0g77qtt5d9DGxfh/n2PafG+avn19/yloTANJFwUjx+dmPxM3guEJ3aLsq+Nb8onsp3dp/ZM/2EZnY5N8R8UXk5SS9d7+9J8Shpxqa1h/ipSkj0W32rfGJuVeFpBRtapzjsLk7ZSSmoU6eBNY8PO21kF1rTg5zeVYpRbEwMZ8Qb8p69jhh5jbeIswd6pyt2Ytkji9VqviDscbsH/dJdMzU+cClhkT2OSL+ILG5y1T/U1EmE+AzgZCiCIOQ0hGIN2ZvE+JFGrx6k/YzTHvur+wV/Y19ImRvHDtQ5upQhIn/2b+CzhsZ40M2vRBvyp083FAO+QWwVCpRZ46Z7uydDfg/mA8CILCTADMvSm/89eU7l2AOBPInkI6Zu7AokX+NkpWsJnEWVVdXd8yYv+71JdNSNMHCDYnciUKWGUfmQCYKF030CAVZHNo33Vr/ygirF61aOhZZyiReDb7d349qcez7xnSGcw3zsgf0X+HPeWE9IZpPwj/UfDCRmA6hp6YKhfdbtTiS8dSIZnbSG2uXOp63KbF0m9SI2H+JN+ZemjF/o//3U81ixRMdjWbfqttwTKn2U2zR9zVY/CHVgVRCAm1LeKtDZIaKMBeeSqhpSNEhEpqnAZBFQ5Yq4crMS//+qJ58/7uEKvIRbTHTueUt8QAAEABJREFUu3vIWaYXsX6cTwU/lIkncqc0NLavESKz/9J9WtGtOkADGCUZp6zollaoQG2vt2rI8svqvulj6GFB5zQJOVeGuWba6+KRhsyi2p+YoSgGyuax5lS89h1TQpFqIn6KdpmkhkTu4kl7PTL79MEHe8+74WWS8VyP49y7iw58AQEQCDgBuTfVUnsGLT3KDrgjMN8rAnpy6HRt+T4zXeGVCf306tU7qbIc6zk9wDqz5nbM6rfON7Pxxva52gm0heQ+NUptph0dAP3uUbI+O37DJPOolfZLPTKhT622KZLwH7VNeXaVvs8U/dTtI1UaenjatKlYYu1sXea71JDoON60KWX2gHb+TDDU8zZlMZ3r9sDtg26YpWyHhDuJWM/fyespTCz7Wk73c3oieELsLCnW43hF9UtPIo+Jp3M9RI75HervoKjidxUmEhbbzvucZNfK+FYIgZXJ6G1a3tyFVei+XqsVLVmq/OO6Tz2raBILEfT44T2ZZO0hROx1EMvsp8NE9DFl4cQT7Wa8Qv3qw9QbzM4+TSR3C/MebxcsosV6/ap3vLAiioSoYhGIJ7K3qCzzu91lf81sfSmTrL98ecteax43T2cMdye/ljEv70knaw+esDFi7hQ3LwFQ0b1Jg9zOZ7e+RmcPdifWLsp7qwzxz3LEHPhdH4RzCJOwCgRAYKQEhP5uifVD0p40YQKBURBY+VAsS2KZMWbMMWIUkopW1XQK9YzVWa4HW5k+LxunOVLaE7AhTRc2+mNN7ccZe4h5sRbvtVE/fZAUlb31X+bxPR8Y02tCqnXyyxqI+Z1+8VWbYgq9aLbhrLmvzDLblDybtrWp+Lx1xxh7hBwz+L2v2pRjhb7rp7faplqj3yDHNgO6e9Sm9mgsLMwP8sbc5vi83DG9bydrloL65XtIHNUC6d1PNTRmjzJtSn9/j6o419oUO04NzfmGh/tp9bZCUjoZnaGubtTsZZpOxO+YcerGKHkysRDTZlXtm/0BEZshBaQhkf1m7/HF0/0BERn92neKJdqfjKdz5kL3gbrU7BP0o6Rpwsz5aw4tqQYIL5iAHhvMywfO7l9Ro426H3GOSbXUmj5I/1V5zrOYvqfuk/Ynkv5BLGKmy7vHVJmB4PeQVdCBMrNkyots0Tv3kIIFIAACQSNg657hrytaIz8JmuGw158EUsnaB9Wy+Zr1ir3+91EKWZSKT8z1xE5qnzH7dKmZfXrhr+wt2B3t+Bk9ZvykWOOGRqOfhR8uWE7JK3AXhbr3b1uyd1vJVRWoIJWse1gv4s3TatvalM74Jdmh6uVmm5oBR91uU2acN+1IHm/0k2WZIINfsGy3g7scyz4gvXDyS9sX+OYjvbj+a0zWXNKesmb/JEseDdm51+LpjqdnNGVjZt9Bug8puYEifMAcqTZtONaU/axpUxrGeqzkegdSELIeiU/88HsGWoVlxSeQTkbNWEPriy+5EInyhdDW7utpwT/Mo0iFVCxK2XRL5N0axTKPMElRBBZJiBpzpPktxlO5r5k7ULbvD8ydWkXSMLiYQxZIldFnxuZS/U8aO5j44MFrlGTNPrZTdXdJJEPoiAhMbVq/jx4b4rtUFuoSoTPSyfqvm+WHNUvYtJ188kDHt3SyToNY9KLK0p+A/tdUXV21ZvqCVeaNhfptZ7J2zuY3xyIaqRYvn53Oz1CUAgEQGJgAU48Gr+5PJyOnD1wAS8uVQKn9SiejrdrROU317Dj46LxvEndzpnNzbmvn5sjWGSdkonpQHGeyOYEbtZF6sjlr7vIxRp7J8XT2U0bPmM7QJmbbPIIzahUlEGA7Vvig9MKpvgs09Pma2hB9hCw2+ypftqmQLSu2t6lN0+Ztqjfb3uTitKlma2ebknHxles/adqUduheFWYTMO7D5KdPhx05eOWi+l2upPrJQO3GrmGh5/1k005b5I2WUNps51jb+s/s37hugmlPJhMJ7yw3irnDfhM28kyON61/36sTO/5r2jALf2sUUkddVX/gE5hsTwIZozY+oAL0mF2rpm/Q7FnS7d4U69nn7gPmPFPthRGZZOStJPS06lZT9L+fEtNRPHHcZrM/0GDSQvObNdkEnEn7HMUw1QSsYmelx/bKPTY7ca3T8Qujr4ecNmIK9Nudi8EHMpTAHAnVOLZ5q/EX9Nv2xF16RDo13Vq3ZPsCejnTscS0nXxyLJ37X3N8270ds0WfJZK1fTLNZ9ipfswEcs18Xy44gLWipe6/whbuwuojiM9KIlAOvpoD9IN61ckEGcrBH/jgMwIi9iskssxnZu1hjlU1tj1k17xm8qaJuQdma8dtNDmWzr7NDk38vZFnMhGbwdnJ35P8sKrb2uhrG5eyLbazhoS8HQh8eEhVVVbXWrPtTX51Qsei0bQnM3hp/JVT32qHJ/3GyDN355DjfG94Mzwu0ftoepd5LMdjQwZXn26N/twhvlo7yb6+GMsh51ub2dq4bfvXvDaz6dU3DNamZs2VMSYAYLLp6Js7PwcqO2vu2mnx/d7c1CeTyPmtkOw7OC2sKXcCGsTy/E4sZlqwaeLet5uAvRe8xeoxjxb7+xjDNK/vd9u5OfvTGan1HxjoN163Peht7oIx+wMT7Bpsf2Dqr7U7ruCN41NGducY2qD9tw94sQ2g078E4nt1HCUsn+5voZBzTiYZHfHFWb0a8xNzfJuZyr2TmmVHPCq1KPoMEee0z2fOV8lMInyEVTdhjJnvyzsq9C3I59NisVXwCDq9+UhHGRAAgRISeIUceraE8iG6wgmkW+u/L8Q3KAZfn8Sqff3TXNNxG01m4r+qwLdpDkraELLpgrYle632u8GZ1joNBlqXEUlg2pR29k4YTXvq3KwnEj3W30nkXX7fPjvsE9rIIUr48XHUHTZun8m0Rh5hoRP1a2DGdXWk69mB2xSvs0PZezZMnHLqxolTz+RJ45JjukJ/G6isHQppH6D35RHqOhIIbCOQTkbNnVgd27559V9OtkOTbjF3ArltQaZl6r+FyLzExHZb98j08WEWO78e6Dc+1rKe12DUNzs3115u9gmdW3LXjO0K/V3Lrte8Yfesx9ULNddRSScIDzSBkLyRiF9POyfti/GwF4CYaJNWMS+M6J97dNmO5DD9qWFlTuXvWES6PzqAmF7ZuUTnepyTqHnn4P4jCmCZ6JjF9mEqDgkEQCA4BHRnw9/Wq8+3BsdkWBpEApnWaFKEziSiVzUj+Y4A59ihQ9uW1D3nO9MGMSjdWruEOHQakaBNDcLI48UdYvW8z/QPPbYjb/Wp1rqHmKxTKfD7Kakm4kaLrFvZXDwQOkYvMu9yQkCBmNhhDmscIRDGumukC9pqttIsIu4kTyc5JWSPucGM8+e2GZlk9N2q81+aHc3BTUJ7q/EfI+ILzT5B9wXnaH/sDUQaEiBMIFAYgW0BZWtc/1pMdJH+XvK4+8o5VoNR0f6ZiH+iuZv6TY7opS8SFdtvIbEGyWjH8UAcuTb2TGbHI+YjCmAZ8Q6FVTm3m3lkEAABvxMQE7xqTWPcK79vqLKxT4NYi5jpHD36bCobp8rCEW4Xmw5LLY4G7k7MdEvtYiE+SzcD7gBXCL5JQlnHto8wdzH4xqbdDBnsq2Wvf4zZulQDox6fuA9mYUUtb7PtnsDcEVduW2bZI5FNxPSY937JidVV1RdRv7st3LIpnYyau6j/ScQ2YfKSgLBIj5cGQPc2AmGn+ssktl483PZ9tP/TyciniOSJ/nL00sWs2R9bphdidi4Vsc0bDwc9How4gKUGPE228/GdqjAHAiDgTwLcycRf1d+sudLsTxNhVVkSSLVEF7Lw+eqcp4PEqn6kbQTW6JWuD2WWRP6z7Wve/31T0Fz1Y6bz1CAEsRSC10lE1lpsfXjlkinmzgWvzSlYf9uSfbaGHPoNEf+IiIJ954U6EOgkcnJmcZ15FDvQbgTXeJbXxWoTan9Ks5epiljePiOTM8Ek1+1IJ00QSzSIhf2B6/B3Ktwklvx551fMeUXAcWQMEdfQjkk6NbrYteNrMWbYtmj2roIyrfWLWMjchbVjRc9ek/fq+zLiAJYRIGHLXLFaZeaRQQAEfEqAnb+QRbcTJg8JVK7qdGvkfiK5SAms14zkHYFXLLI/trK19invTCiOZmdD5GEhvkal4XFCheBhWs0U/sSKZK052fPQjNGpXq6/CY1cfZ2I20h3VpqRQKAiCTzezD0he+P+QrTCYwAftkROmHHqxqgXdmgQ6+2q90nNumvQ/0huE2jLtNSd4bZS6BuegBD/ipj+MXzJAUo0N1vxxnXTVUa/gBi9GgrRc8vu2s/ElAaotHNRFW85k+Z8I2SWjCqAlWmJ/NthOlIFiWYkECgdAUgeEQH9YW4ih/8ZpHFJRuQoKvmaQDoeXUhCV6mRCGIpBNeT0Erm0P+tSE4JdKChj1tmKW+poq2PschiXTboLea6Dql0BFYx8efTDZPMSV7ptLgkeWUyupTFuYJE1rikEmr6ERCStBUiBKT7MfFqtm3JPludUOQAYn7JKxu26eWTQ509l8cSGyLbvrv7P52Mvl37LeZRJ8ddzZWtTc9beohpbWVT8K/3zPQX2Sv6dF4WsrV3bO7a/fryjNTJBzFbP2KSg7fXT+v8vV1UPfiQVNsL9n6wNZcOnMNm3jL/RpO5d5Atfnk0MlAXBECgJAReZZGH0q1RM2ZMSRRAKAjkRaCZe2o6qUU7g7cSk8dvOsrL4nIqlA5Z9PlUS3kEGvo2zPLk9BUU4gdI6Bu6DI8TKgQXU4bIOiYVr/0zNXPZnNyZQd2J+WLtUJsglp5HESY3CDBtsZgTKxZF/+SGOugYnsCqhbx5i2Obk8wXhy9duhIicjpzz6lEwqXTMrhk7T+/Q3WbIH1g93ODe+fPNUyctsQ635/WwSpy6LXMbbwlHxIi9ACHQi/0ZYvD/9ID61u2102Hxfq/VDJ6waqFE/MLYBFPP2QVsak/6gCWuQtLyPmiCstpRgIBEPAFAXlVryQ/mG6tK9rAe75wC0YElsCyR6Iba8bTHdoZvJmI1xEmNwi0iSNz2lqifyFi7TdQWU3mztJQtXUlkZVUxxAYVQilTtqIVojjHJeOT/4DNZdP8Iq2T+lktFWYLySmVbpI3dX/SKUlIPyLbhINipZWzQilV2y19tb6TSHbeoeehD7nKQThvfdpem2KVzakk3XmccJ/EJXf/o58N3EnkfPvFQF/LN13WItoEDNXHVaEFywI0xXdjjizT6ddBm8fxtTXiMxNkdrrG6ZgXqu7u3ra9GT5/rwKoxAIgEBJCTDRJhILwauSUobwkRBYdld0Y7ql7loRvkqEcIv4SCDmX+dlR+iL5T4octv9tW1Od+gaErpN0Zg7Z/QDqUQEllvEx2YW1/+WmvM9maPATemW6GJyrEuI5CXNekIVOBeCZPByIr7llZa6/xIm3xFoW1K7njj8HiJeRp5NcrItWxs9U6+KNbD9Tt0X/F1nEdRWCKVJJsVuuZIAABAASURBVHhFP00n6z5TGvmQWiQCB764sn3fPGUtZ+J/8Y6s56fbK7JQC1vOXzs3d+y3fdGwH9r/+METHYf03g1pDVs6jwJrHp621hL5lv64X8ijOIqAAAiUjAB36tH1R+nWCO68KhljCB4tgUxr7V1kiRmEGwGH4WCOaL0ssxw6fmVrtCLe4rPyoYnZdGv0KmK+SnGt1oxUdAJ6Asv8pVQy8seii/ahwHRr7RISPlVN+5nmPB9v0JJIBRDgl4SdxnSy9ncFVEJRlwlkNk7c4LAcr2q7NXuShMmiZinKOSuNcNIg1ru06l81IxWbgFCXivxJemOtGVdbZ5H8SkBIPmHZ4UPzsY/JOSOVjBzcl4X4Qa23c8gH5rHk0EGxOemxunzY1MNyBy3VGlqyaDuDFYvrn2SiU1QmEgiAgDcEhPSKsUX8VW/U+1MrrPIngUxL3Z16zLhOrVutGal4BF5gseatWFx548mkWyL3aOdKA6OCNlW89mQkvSiO3aR8f2++VErWoOjPharmkbC5u++VSvG79H6yrTpecNhZkGmpf1znkfxMYCnbLOEXtH/p3bYSnj0zs2Gm15g0iPVuteEvmpGKR6BLLz79OJ2MfJa0rRVPLCQVhYAVek3lbNbclyLMzqS+L4V86jY+nYh/rbmL+iZLHrUmj9vjjq6ZTe1vFKZwXzHzyRs2P0XEeq5LGtGmIk4cXq/SntGMVD4E4ElgCHCHnrz9YEUy8qPAmAxDK5pAKhm9g4muVwg4OVQIo0uylYif1o5gU6o18geq0CmTrLtbhK5V980YRvqBNAoCJtDwX2FrQe9jg6MQFNSqmeSkXLo1ou1JrlYf0KYUwugSv8zi/JbInr+ypU5PZEYnDbXdIWB+B9VVNcdpEGvbADTuqO2vZa4tPXP6L/BqPp2MvluPMeaFA57dkeaV7yXQ20VMP0qb4FUJhEPkqAj0VmbhvxLx36jfJMLjY3neNdWv2rZZsRfrzLBjHjrCrVpu0ECZpSuLllItk58QCjdqxMzbAf+K5hEEgUBgCGzQ4NXDevJ2QWAshqEgoAR6g1gs14uQdggFg7srk0KTiDxHzN+xQvaX0i2RirpLZiBWmda6u4T4Og2O/kvXb9CMVDABeUGIfs5iL8i01Hp350XBdpemQjpZdy+JaCCLhu14l8aC4EvV3+Pzuq86v/qVjo+nk1Pw2GDANulL909YG7KdT6rZu5zM6veKS5lk5L1ErBeLeYjjLWEanIBDxC8T0Q/TLdHP6SeSTwmkk7W/I5Zd27kl76e9xv7PSExOt9Z/XwPhu4yBawtNoH6PCM+au3yMyjZ3XIb0sy/9Ycy0rdputn0tagDLiJy4MfMvPUg1m3lkEAABVwho8IqWZJLRM13RBiUgUGQCqZa6O8OO9Qmi0J1EgruxCuP7rMV0mnYCv7hiYf2ThVUt39KZZORuh3u+pEGYJeol7pxRCPkn+a+IdWYmHvlkqnVKxd7NtzuvdGvdPdqRv5ZJfqPrsJ9SCAWk/4pFZ2Rao99a9pP9OvOqh0K+I9C2ZMpqkjGfZaKKGF9x0A3ALOauoZpx2Q8TccUH+KmwqYeJf6pVLk4noxjzSkH4PYlDK0govcNOoY9YzB+dfWx24o5lo5hh5s82rNmw426rHmuing/QLuNiba2xP7bsrp3HjqIHsJ5demCXHuBfFuJ/jsIXVAUBEMiHgNBGEXowg+BVPrRQxscE2pbUrtcrPVcT8y3auVmhptqakQYnoEEZ/gOLnJFK1v1q8GKVuybTMvXfZt/ITDdp52tlpZEo2F89nmidf5DwmZnWyE+omXdc7SRMvQTSLXX3WfamjxPTLbogoxlpCALaP3lOV/9chM9JL4qaAfH1K1KQCaRbx6+ymY6S3rumg+zJ6G03J9Sy8bWPC5Eeg2XN6CWWvYQe3Xf+IJWMfCKdjHy97L0tEwcnboo8rK58Q/OOpG3+E11j5O07FhQwo/uOv9G2/kZvLXbk/J7O7inmS7wp9z6ND9+n85M19yZh+lNNTecu5wRFD2AZTelFdX8nxzlZSBDEMkCQQaA0BDbqj3pxpjV6RmnEQyoIuE8g3RK9hdi+Vjs531ftXt7loOp9m55Wy24msY9Otdb9UueRhiCQaoneboJYTPQjLaaBP/2PtDuBZ4RlsSM9TenW6M93X4nvOwm0Ldlnq9lPKa+bmPg32rZ2eRxiZ8mKn3vWCvF56WT0IxkTEK14HOUDYGVLNOOE+Rj1yK07NF+0iJerPt+lzNL4ljHjcp9gsu7Q814NZBGm3QkoGCb6MQt9V/edeGRwdz4+//7sUu4iEtPvNI99brOW6e1C1memz8vGty0gDf3QU73b2WxrzY7DAx4bM3reas5f+5dly3qtV5bIo0RcT/0mtkInZG6Lbe23iKz+X4o5r8b9LSR8TTFlQhYIgMAOAhuJqTXj6zuvdtiKGRAoiECqpX6h6eSI8G16gDOPKmAco20EnxWRH+qVL3NSeFu6tR7BmG1chv2fSkbv0PxJvep3ixZ+VvMunSH9XqFJXlLHf2oRfyWTrDtzZevUp/Q7Uh4EMi11d1Y7nUeLWHdpcdyNpRC2J/198feZnAtSiyI/3L6s3D70lFx0V1xubuXvz6qFkZTYdiMLmbvs8q84kpJCD6deinxnJFXdqGPuxEolI9dVh6wjifgHmn9HmPoIrNeZ76aS0U+kWqO+GIhf7ck/iWzRwhU/YH+6tW4JkWUGYDdvJVQkJslpIZav9Aae9GumNXJT73Y221pzZnHdX3XxgMmcv/YvG3JC1eEQna2Fd9x5pfMm/dSmSXoxW/c05tv2bG3/LP4Hs9gs5nnJQY0vvtIykwh3QGBgAht1cVJP8M/STyQQKFsC5mDocM9JGqxtUSf1AKb/KzOZYMs/iK2LMpuin9EDvxk/ojJJjNLrdGv0ViK5WNvUIyqqcgOAevqtwbz/sISu3CLOUSuSeHuttoeC07LFe69LJ2uvZqKbtfK3tV1V8qOq7USsJ+5ycToZ+XQqWa8n8uTZpNuklAGPV3Rb/8kz53yiuNuuX8WWtn2zPymhTXpK2UOPcw/5fHp5YWRDOl77GaGehJqqx2ne5bEnXVZZiek7zLRIj7uBveuKhR9nop13HhV7Cwr9/YnptGswvNg6iiRPmP6glu76dB3zqSGLz2+Ylz1g9ukv1oxEVUNj+4fEsi9RCE1afy/NvYmJf2T6J6sW8ubeBf3+lS6ApUr0at7fHKYziegvmpFAAARGSYCJNqmIZDoZNVFqnUUCgfImYMYx0mDtuUx8hx7clmrwobLGmWD6j/r+sDjOuemW2u/R0grvEBehuaeTdeYxhiYRvn1bm6LVRRAbJBHP6Mn3NzjEF6Vaax9qb603x5Ug2e87W1PJ6B16XD6SHLpVRL6p+6lXfGdk6QxytD3pforuZUdONr+v0qnKX7Juk8/nX7rQkvyEbm8TtCy0YlmVX/Mwv8Y91q+IpZSPsj/jFHiXl6eQm9nJJKcss0NVxxM5j6ktGsjS/5WVvm2OrelFkSNTLdHzg+z6itbII+rLv0rmA1vnUjMFItCZaal9nC1rERG9qLlfktPIoiu3vhY5ru9urH4rB52d0ZR9V6yp/XPC3KqBsXmadwSvtH/2w3CIjh2sf1LSAJaxeGVLVINX1ld0HrelKwQkEBg5AXlVd6KLtNOE4NXIIaJmQAmkkpEbMsnoUUx0BzF/Ta/qDfhsfUDd291sRxf82/hJJJeq7wsyi+t/q8uQikjA3OG3rU3x7dtZl3twVANX/DWx5FI9jnyhjB/vKmIrKUxUujV6a6a1bo4GsW7TmmaQ4iAGR9X0vJKtJxz/EZJHyLEuSSWjl6cWR5/Nq6Z7hcw2KLI20eCk/K7IQgMrrm1JbRtL+CR14Beai5+EHtPfVCnvpiu+zSpx1cKJ7RrMPdYKjWncdnyhn+jisk5M8i3j64SNq48xx1ad19OW4LssLOZuS/NUWZGd4d/XjGv/K2kEmAIypVpqH2K2rlZz/625S3Nv0g19pPbLW8JM58bnrTvG5BlN64+YNbdjl0cCZzSuOzyeyH3BrA8J3cpifU0F7BhHS+c18fesGusEc0ejfhkwlTyAZbTaoS3/IGYTsTOdcrMIGQRAoBACTK+S8AN60nFOIdVQFgTKjUAqWXdduiXyRem9I4vNm1HMwJI7DqJB9ld9WkHE3yOih0isS42f6ZY6810XIZWKQEqDo4Y1M92u28C0KfNooYxcn69qmkfO/yjED4vQ5cbPzKK6wJ0M+opoHsZkWutv0uP1Mcr9Ns2mTZVNcFSIVpCQaUMP6nnXZZlk3Qnp1lrz0o08yLhbJB2PHMtE5jdQLMVdJPx4Ohmt+Luv+gNNtU5+Wcg+hYR+1n95Eeb/TZZlTpSLIMobESsWjn/F7Hdth04U3Q+rFd8m4jYqo0mIlor61hPqOsH4+uzSA8uiT9a3icx4h7xtn/dq37JifDos5y+LPhK48bVSGsTS3+WlymAxkSzTzx1JmL6s6x412RL7bjsspzQk2o/vyxZbd2nhR8x6IXq31q/W7zsT03eEQo2p+yZ37Fy455wrAaxVC6dvFnH+rkbiisWe2wBLQGA4Aq9pp+D+dGv03OEKYj0IlAWBPJxIt0SuzSQjJ2jQ4QoSWaR5iVYb8oCn6/2antXf+GImujFk95ykJ0fz/HpC6FeAxbAr1VJ3vWlTxHSr5lbtszxIxFkK4KTBqufU/iUicq8jdJ7xK9Ma/VYAXQm0ycr9Rs0nMPFt5jeu7epn2mkP5CObTPS88YGZb7DDnQt0P5VIJ+u+6+sN1KwWk9xXPBuljfUEq3jyykeSeWxOHPt09ahYdxo9RWxdljaPzqvQoKdVi6Npsy9wurcsIHZu1JapJ/9cLFau49H9gR5PZInxY8xWajK+mfN91w1xSaFY/E3df/9X1YnmUSdmeWTs2Mg/qbnZGbUwDwSkF9V+X48BJ+n2v0azCVy3D2DGG7Vvfo0QP9SXtcyB2jcZKP70bZWz2LY6F2SSk3Jabsg0kIAhK4x0pV6h+ZsjfJHWRxBLISCBQJ4ENrPQvbqTOC/P8r3F8A8EKoVAqiX6zXRr3Wma5+lJ+53aqWpR3zX4UNSr7iqyuEntfF47Q0n9VHv5Kg1QN6aTkXvblkxZXVxNkFYogXRL9BbNTel4tFFItrcpMQHSDYXKcrm8GZeidVubcq7W4MK8TGvdhStbo+ZNni6bAnX9CfTe5dcabewhOYuJ72aiFu2s/4eIu8jXk15dZ+rdTznMV/fup1oi9+mJ6kAnKz70hCW1MXqxGmZ+v/oxqpRh4ntTyejSUUkp48qZJVNedKyqM5XTj0fp5lN6ktucLpPgVX8WKx+KZdMtdfeZ35Ittu4PdF+gvzEt83PNvk7C/EM1sPcYU1VVfYo5xhg/lj0SLeZdjqrCfyndEvm9tkkNOvaO/zSqMauY5KvOhC3zl93Fnf7ztDCLtO+9xLJc1YM0AAAQAElEQVTkLGK+jba14+X5S5BOJvqW5paQbZ9q2lK+xxbXAljGGdOJsoQuIGa/j+VhzEUGAW8JMG3Rk6e7Uq3RQA+A6C1EaK8kApnWaLOeXMx/18bIAu1o3KnHmvtNFqJ/6afXbzBqVzt+pHb02tR7MtgSmW/sTScjXydM/iPQzE4mGb2ydxuF2hZoJ8uMv9a7/dRYc2eWblKd8y5t1aubT/a1KZ2/Nq1t39ibaa03b1n0zjJoHpDAKy11/9Xf+0VmG2njuUK32b1m+2nb0kC2FPXxlAENGHahvEbEfzQ29WYJXaMnbr37qUxL5KsUxGkp21NC5phADxDxo1TgxExmvMUlzHKTbrc7CqxeccVXLpr4gmU752j7/tFInGfif+nxu1mDI/6+u28kzu1WZ1Vr/fPapuab35iE+Nze3xyzHmPIPKLrl8eOv73DLgmdlY5v67e8dP8E87vYzaPAfx3SARN4ZLKuJeIHSGglFT6Zt+kt6ezqOSlzW3xL4dX9WWOFOa61RK7tbcdC1+1oL9qWmcgMIWUuKpvAp5l/YMd64bs55JxufgOFXrx1NYBlsK/QK4EsdLEetBHEMkCQQWBgAlvFkTsyyboLBl6NpSAAAoMRWKonLNr5NWNInawH1JP1xKNZjzl3EfHdvVkPqsRSys5DNzE9o7ru1dyrU4PRNzuhqnONPSZvOxnUoyFhCgSBhW/r1k7W5Wbbmaxt6mbm7e1J29W2Thp3l9iXjMp/gFSfydqm7nREdthkroSStn3CFAgCmdbot/SK81mmPaVCy08h4dto+7bV/dU9un3/qd9HdaWfhpuYVpLZH/bpJb5NmC8xNvXm1tolpDtLCvj0xELuTicjJ9uhrWeI0EJ1J6V5uKTseZmWv6mrK3JaqqXuzuEqYP02Am1L6p4Lh+Tcbe2Y8wxk8VOk7VDbX0UEr2iXiSWzMPKf3t9cS+TkUNg6m5huIuWxPWtfgn5HpZ56xzCT+2in3rt7yDq7z65MctIyamaHKnhKJWsfTG+s/bIwX68Y/qJtPM++pDxIzLd3dXWftubhaXqhQGuXXdJ23Bpd1NdezGdqo7ZnO3JqyN546r7xf5+S1v2wWd6bW6PnrlhY/8pIMLgewDJGppK1f2KLr9EI+xPmOzIIgEB/Atyp/UXzJqML+y/FPAiAwMgI6FWz76WT0bPTycjpJk+xar+sJ4u3ENPtu2fZ9pZDPXl0WjQo8WPN5mqwHmBFM6WJ6K/aYfmO5vv1GHb37vXNdybRE1G6Kr3xl182+kzWYPQNqxZOfE7rI5UBAT2ZvT7VEtmxfS078mUm5zaz/XfPzKzBU3pA29KP1XVze72tn9tT78nAeiJ+StuUXnXne0Xozt1l9H4nvm7CxtU7dGqb+srKxfXmkQ7CFHACGiDVYNZl6eS2fZTOn84izdom9thH9bYFlvuFSAMDMsQjx7JVqfxR87ag50D7O5Hrzf7Q7KO25eilmZbax7VOGSaWVQunt48Zb36rfK3hqAzv0N9lizqrwZPe/fsf9Nhwj1mny24jca5JJ6M3r3mYy/SEU70sUWpbWPecBtVPU74X9PLU9sfb9oUPEvEPiOgxEtnGWteJxVekTfsvw8cG1deCUtv9tW1p8yi74WGy9iWI7Uv6OPb/NG3YcFS2j+jnb4n5Jf3cPaiyQfsrf9F1D+k67d/QHaTMd88W2xemX/rPjmOM2R6vJGtXFGR8JRTWC0WZZORuZrqMmLf1JUlMkNG8VMhcyDJvaP0ZmUDgds4hO3RmuiVycfkGr2jgSVm1LeGtbUv22fp48+E9pCe4VITJkwAWqfFbqu0/M4m5lcxcUSRMIAAChkBvh/NmPeE2YzaYBcggAAJFJrDtanz00nRL9KzdcyYZPXPChtqzN2+1zrGl5yIhuYKFrjOZLL5WyG52QnKBbNpydvqlPesbealk3Vf08zFaelS/QEWRnYC4AQl4tbBtCW/dvt33aFPv3FB7lh2KnG2LdZEwXaNtSju81rZMciuz3GCxc6VpVyF7wzmZhsgeMrQ9nZVORu4tt7c7ebW9/K+XJd1a/30NZJ3bu+1321fZVtc5euJ0kZ5AXUe8vS31/xTS9sU3aT/7ctP20vHaswaSo0HQu83+0P88imfhsru4M5WMPGB4ZJKRs8IhPlcsuYLEudYS57IJm2rPNuvSyeh56da6JcXTXJmS0snI0708tQ2ndF/Y7VSbMV0v6qHOr0wJ7zyGZhbVagC/MhkN67X2JdItU37fx7H/p2nDhqM4NeeT5VyqgaprmPkm6rc/YOIbmPmyMHWfb8qaOv1l9M2vSE75Jz1uggzDWoQCSiDVEv1FOrmtLzkhHj2Lxb5K+d+svG9m27l4Smj7vkTbftuS2vVaBalIBDwKYBGtu3fKq1ZV+Gf6g/qO+mKeCdUPJBCoWAJCIk8Kha5LJyOXVCwFOO41AehXAs8u5a7cI9GNK1unPpVO1n031Vp3l8npRZH7M8kpP125qP6FzNL4FnqcewgTCAxDwDzSumohb17ZWvtUpiWa1KCBBjhrz023aNaT5FRL3fUrWuq+bdpV25J9tlJz711ZhAkEBiOwauH0zZmWyL+17dyZNu1o99wa1fYVvUyDqr8ybY+asa+iASeWlxdGNmQW1X0n3Vp//4rW+t+Y/f+ARbFw9ASWsr168YR1aQ1qvZKcvqLSgqejBziQBBbDMd06flV6W5BrcSoZvbz/fiGVjFyX0mDL8papa0xZIhbCVFQCzzZzV6p1yje0z3iR8r4g9WD9E9tYF1UNhG0n4FkAy+g3t0iy9Cwmpp/pd0czEggEnMCIzBeNXt3IIevyTLL2yhFJQCUQAAEQAAEQAAEQAAEQAAEQAAEQKGMCngawDNcVySn/1MjVjTr/S81E+AcCFUaAma7MhNouTS2KYCyTCtv2cBcEQAAEQAAEQAAEQAAEKpoAnAeBAgh4HsAytq5sif7FcugKEkIQywBBrhgCItScaok208K3mUH/KsZvOAoCIAACIAACIAACIFAcApACAiAAApVCwBcBLAN7xeLon9SYy3T+55odzUggUMYEWANWcmmmNYJHBst4K8M1EAABEACBQBCAkSAAAiAAAiAAAgEgoDEj/1i5ojX6Z4fpciL5rlr1qmYkECg7Aix0E4lckI5HryUMpEiYQAAEyoEAfAABEAABEAABEAABEACB0hLwVQDLuGoeJ3TEvpKZ7tNA1ktmGTIIlA0BkYtpa+i6dGv0VsKbpghTPwKYBQEQAAEQAAEQAAEQAAEQAAEQGJSA7wJYxlLz6nKnS+4QpmYi+qNmJBAYloDfCzDxRRMaojenHp3c4XdbYR8IgAAIgAAIgAAIgAAIgAAIgAAI+IlA/wCWn+yizEN1KyduiH5DHOtiEfq1r4yDMSBQCAGmW4T4dMvecNuzzdxVSFWUBQEQAAEQAAEQAAEQAAEQAIESEIBIEAgcAd8GsAzJZ5dyV2Zx7W+F6BIEsQwR5KARYJYLw1RzUyZZe0/bkn22Bs1+2AsCIAACIAACIAACIDAYASwHARAAARBwk4CvA1h9IFa2Rv8sFuFOrD4g+AwAAV6mRp7d2dlz1/KWvdYQBmsnTCAAAiAAAiCwBwEsAAEQAAEQAAEQAIE8CQQigGV8MYO7k8hFLPIIEecIEwj4lIC560qYzpCNm+9f8/C013xqJswCARAoEwJwAwRAAARAAARAAARAAAQqgUBgAlhmY2QW1/21h+QqJjlJv/9RMxII+IaABq3WEjvnVm/hezMtkR9nlsa3+MY4GDIUAawDARAAARAAARAAARAAARAAARDwOYFABbAMy1Wt9c+n4pFvOUzn6vffa0bynAAMYOYLLXYSW6vlgWWPRDeCCAiAAAiAAAiAAAiAAAiAAAiAAAiUHwHvPApcAKsXVTM7vY8UWnKOEC0SknW9y/EPBNwmwPQNEmue1cP3pxbV/3DdvVNeddsE6AMBEAABEAABEAABEAABEAgQAZgKAiAwIgLBDGBtdzW9qO7vIQ5dxw4fr4GsP29fjA8QcIeAyMW2JZdP2DT50bYltevdUQotIAACIAACIAACIAACIAACIAACIFB5BAIdwDKba0XL5OXpxdGfsThf1u8/JZJO/UQCgdIRYL6EyfmUcNX9qxbWPffsUu4qnTJIBgEQAAEQAIGSEIBQEAABEAABEAABEAgUgcAHsPpop1vr/0HUfR4Jf0qX6bz+RwKBIhJgohZmmuN0he9PJet/kElOwtswi8gXokAgeARgMQiAAAiAAAiAAAiAAAiAgFsEyiaAZYClk9OeTrdGf26RtUCILtdlGc1IIDBaAq+Q0Dkhsq7eNxb57sqHJmZHKxD1txPABwiAAAiAAAiAAAiAAAiAAAiAAAjkQcDKo0zgiqxI1v7TCVXd6zDNIeKnqIwnuFZCAswOCzVbQkeGHKt1ebJ2xePN3FNCjRANAiAAAiAAAiAAAiAAAiAAAiAAAgMSqPSFZRnAMht11cKJ7eZNhY50f4nI/oAue1YzEgjkR4DpKi14WE+46p4VrdE/Y5B2pYEEAiAAAiAAAiAAAiAAAsEmAOtBAAQCTKBsA1h922Rl69Sn0skpv5MQf4GEPkLEywgTCAxGQORay6H3dNtdd6VbIr83gdDBimI5CIAACIAACIAACFQeAXgMAiAAAiAAAt4QKPsAVh/WzMLIf9KbIr/S759li44mppU6jwQChoBNzNcKyTvtcPVtKxZH/7R68d7rzApkEAABEAABECg6AQgEARAAARAAARAAARAomEDFBLB6ySxlO52MPG11R75Pwh9lkrlEgkBFL5yK/Peyen225TjvsK3wbZlk3d9wx5USQQKBABCAiSAAAiAAAiAAAiAAAiAAApVFoLICWNu3bdsS3moCWT2hrqXs8GG2FfowESOQRRUzPWZx6IO2OB+v2UrJFYvrn6zAwFXFbGw4CgIgAAIgAAIgAAIgAAIgAAIgEHwCFRnA6ttsqxZO35xaHH121YxJj9tiv48tepOuy2nOI6FI8AjIvWYbWyHnrBWxSb9b1Vr//LJHohuD5wcsBgEQAAEQAAEQAAEQAAEQAAEQcI8ANPmBQEUHsHZsgGbuMcGM1KLoM0L2O21x3qDrXtQsmpGCTeAPzDTHbFNnTPVlZhuvWFj/Cuk2J0wgAAIgAAIgAAIgAAIgAALuEIAWEAABEBglAQSwdgOYSU5ZZoJZdog/pMGs15s30hFTz27F8NXfBGwSJ6nbbz/9PLp6bOQHZpuuvGdi1t9mwzoQAAEQAAEQAAEQGJwA1oAACIAACIBAJRNAAGuQrb9qYSRlglkrXo38NSzW7JBt7UNCyUGKY7E/CHzdbKcwWa/jmqrzzPZLt9avWnYXd/rDPFgBAiAAAiDgMQGoBwEQAAEQAAEQAAEQCCgBBLCG23BL2V6erF3RtqS2LeRsPNdhirOEXkdMfx+uKta7QYC/a7aJyVwdOsVsJ7O9UvdN7nBDKageFgAAAtBJREFUO3SAQOURgMcgAAIgAAIgAAIgAAIgAAIg4D4BBLAKYN62ZJ/1K1uimVTrpOUi4Y+GbHtvi0P7ihDuzCqA4yiLbiCSew37bXnDPLNNTA5M0GqUAFAdBEAABEAABEAABEAABEAABEAABCqNQCADWN5vJJZMclKubcmU1StaJrV1jrHP7Ha6poS5Z5rD8kHv7Ss7C56wHOcQw9gOdc7u6uo537DflvdZX3bewiEQAAEQAAEQAAEQAAEQAAEQAIFeAvgHAn0EEMDqIzHiT5Z19055dfXivdctb5m6ZuWG6G+5OhQxufexNqazRiy6ciu+6IhzhGFo8jhxDl8xs+5fhvGqhdPb1zw87bXKRQPPQQAEQAAEQAAEQAAEQKAgAigMAiAAAmVBAAGsYm/GpWybR9lMXtkSWVlvRe7ZIs5Ek1/bmptEtv1+IllWbLWBlce0RZgfNXz6cldX98ErN/3md6n7JneY/Hxr/SZqZocwgQAIgAAIgAAIgIAnBKAUBEAABEAABEDAawIIYJV0C7A8sZC72zUAY3Lukf02pmfV/zFkbzpINm4e15fJkneQyC9LaoofhJtgFVmX9/nd+7lhc3TihlfmGT59ufcOq6VH2X4wGTaAAAiAAAgUiQDEgAAIgAAIgAAIgAAIgMAoCCCANQp4I6razE7bkn22ZpbGt/Tl9KLoP9IN0Y9N2Bip6Z/D1DlLA1sXM9HyEenyqBIz/ZpD/L7+vvTOb1g9ObNx8jWZfr6b+WeXHtjlkalQCwKBIgBjQQAEQAAEQAAEQAAEQAAEQKBSCSCA5Ystz0LN3PPsUu7qn5cnp69It0avS8Ujs9PxSGigPCUUqRaSd7JFVxLT74loo+biJ6aVKv8xspyTHaZ4+qV/Vw1kj1mWWhT5UGph5A/9fdk2r4GqpezlnVXF5wKJIAACIAACIAACIAACIAACIAACIAACJSfw/wAAAP//4aqtbQAAAAZJREFUAwA7vSHul+OjEQAAAABJRU5ErkJggg==;" vertex="1" parent="1">
          <mxGeometry x="370" y="120" width="130" height="29.5" as="geometry" />
        </mxCell>
        <mxCell id="2Z22_kwRR9E-XswUGfWk-5" value="" style="rounded=0;whiteSpace=wrap;html=1;" vertex="1" parent="1">
          <mxGeometry x="260.01" y="170" width="410" height="350" as="geometry" />
        </mxCell>
        <mxCell id="2Z22_kwRR9E-XswUGfWk-6" value="" style="shape=image;imageAspect=0;aspect=fixed;verticalLabelPosition=bottom;verticalAlign=top;image=data:image/webp,UklGRtQNAABXRUJQVlA4IMgNAADQTACdASruAA4BPp1KoUslpCOhqHQZsLATiWlu4WxhG+w//uf9I7m/8T/avQfqS+t3NXef+8f6n11fynfL8gtQL1x/oPyu4NsAH5h/cf1q/GT0dtV/IA/m/7derneU/ZPUE/nX+Q/4/ss/zH/v/zXm+/NP8t/5/9H8BP8u/unppetf9uP/t7j36vf+Us9jYPK0s9lzeLi3Hf+C5zBSJMN0S5vFxlsapCiIhllTaUSQd0dsVgQ1LY2DytK65OR4IKdMR8dTXloeeSI4VkunbgN+ik5a2Vrv88rFYgLWPQD/G4FdzoKXrCglbiZZnuMba2A4K4/subxcXs9pcr73a8KUDhFLuRqypcMc7ZWlDGHKPGu8XGWqZPM30p8gqPZOHUzgs62fEDegz+FJGG7vGS2sHlaWXZeo2onOdHEHlTA5zRgQEjHHAl+h6IZs1ze0az2XN2j8yNrwSJcnR/wLfJ71uiOgRH3RDIO0ap/PPc8hwOy5sse0kq8R2i268zuEMN2H5gdlzeLjKYwg1h11S8glAmVrTA63Q8cPzsf/RrZ+fJxlrS+EolnwC0/TKi5n9QdhRcVOztbE6sYLSWQBH990R5/De4ulL8GbsjHUGr9vj2aQnAqZOdfREByH6o6H0eIif6jxJsE+w5GGDUGPdTGD3yVGROy5EfGWvOZiBeNuuB7FPdRwrZe56cqtf/3yx3pKqCfbJtsBZbR5+pYbE9U4F49koRIfJ7CR/FxEfMRxG/F5YrZC3VfQIyU9iHrf1lfTZZSfYEMzcxgQTMD1QJCoGnY0pZskYV21XLnYy8u0gCjfxZhoH7B5WlnsubxNAAD+/ejAQYiC8Pz5xcgY1uafgqCG9JYA6Uu/fR+dDuWT5HW/DjvnR0e0NU/HAiHSIrROb4V8e8AfESaOgFN+8IVkA5X6799lTSE6Hv7Kcv3AYSngYK/4iyJc/5IISKQuAsr2cDsAs/HUnq3CiYFPQgRd4qd/X1C/UXOfIXksO+2muttZ2cuxgenQs34OjvZsiUKe71dtwXBTuvYfsTAuZ7vTdugmW1C8pZ5q3Y3sYWB5F25ezVmdeiGPwY1QSD7Ho42sz96Q33e6OgyvKrc9jOSIw6Kr5dj+PyGqCWkuyoRKh2GDGdvkY5RGotoJwxgKNkcyfuhrvvnjY+/7FB/k/tYECqDF3pJ44sT3jZrpLFq1QoWZwnf9iCq2pHxPH9o/0dC84sKT9Qu8P5P5luwY5TSD03dDohNx9x+cjbuQa7jUyt5MYmwE7pmHpwjY2KZ6HKPaIXsypIq4XJsGdQ9ur1YlOfx/hk2KpuYheiwbvR/mMeOV8MOFYHdKRgd3aYbJ6nG6sVjaIoE5whZFYu7iK94ngUvgAQCnDtrKDABP/UWC5zUH2SJT3/S/nmuWGsdalx9ZHJSWzro9dIpKwLM2GC/Z8t4uPhOFTRsbARxSMkFnZI+2LK7D5FrkxjrVGqGG5q6aovXk3IWCHVF1ty8dj6wPfl4LDVUx0nBkW0l4CNzxvQqahpsPTtwP20DLaWv05oyygAlUJYo1e6ejyiu8Um50U0ePECphw+9bXNj7Z85IfOAwuKLTlfjJtI7n7k5/bfwU1cX09AOxeqbi+QMjl+t7HpE1louEYJL1XEBykFBw929Eg1RKPRS3abXsC+tThK/pQZmE/nabz/T2RcoMlBPicIxkp1Iwb9VZyY4Dvp41mPAzx36Kd3b5NabPFRFILHdz7sWJoCI+BJbwmCRS9EBgdFlzJFYAHIjleu2dp2Vgn+aDEDt1+nMC3L5ha6bSCGmiB5MAPjaEOwlaTlA4RWksiBLugu3kuHdyKBNOcV6Yw/FDCGmEWTx4+35yIpCos4EpZnPMk8w5PWlDIQM8PPzJIdPi+KIdpSN8tza3E7bdVk7MWxxd2X60ZYDfEIhiY9SvhQei9BufUV2PCwHm6B0cbx+ajIx3GkT+Segcs/r5Tx3YULKHb9Elr/HkAlfw1lVHXN/njE1yv1HXgeGl6uz/7rU8UihEYOdh/qM3c65eavcNbV8PKMftDxHO/VowzcWRxRjreZ78dJG366hgovTPJanRp0AmjZ7rB3xrba88XoMTUQCWgUKWFtNj5qHER7nZu3FIDY3ah5wCUKZwjjvbPI6pCxbJJ49b1R0iwzpF9q4ZLkWsqqvtbg+yqok/P9z0DvNr7F07bZ2D1EbHrce/8TC1rn1hddYLHNOcT8GDt9qNDZZKCN3F3dkIgfuP8gjL3/AoqTSF8ubsv4mGdTHAj3BVKer7NgR7vKA/yqmHhb63XmqzoYSWj4iGur3YfCn10vINNBodZnKyVi42oEzyM9ri5EAi7n+Y8Wu8t19Ab6e0jI/CNDmatxWvY8JTufVYbsQSvcE4cMwJGhD3gtDUsre/FO9BuqnjbV5WpoDOtscBVnAsIfBg86Bm2ewVkm4fe6X82yWmNPnCO0sM9jEjfhqsV1zhZPNeCa30j5mGijRYJcQPwCQF0XvdRtFrCGCJQjYDBfwH14T7NB5WZQKWMl7lpm0FZYf/8bczptOC41wjb1H8e977qFr5ESd3Q4VVbT8QQO5B4J7U0UbHSTRVr3NmT2lJZIRVju7c/FQhNtxUcYmk1RrNMeHE9HVjbEV1tu5m1mBs5tZLrjo/fPrVJ9YOOPrwKaJ2nwkI1QvWElFUAa7VHDKG/u1sz7nRDQHpEJW2gQzNBi6KbLjKxekGzCwA1exkQ0PPtwMvRC6H4XZ3ZrjBeS0LKkJDmhKeqQpbyzyG8MvALGZeGKeha1IA9nyPOseEtM3y1u2VTKbLVFNf96jMSz8r24Z2cdtksL1VhfGX+GAOaTYtQ1krW0m3i5wYl5iDx/j6VSjktvbZGECA2YXA9+GTHTHJyR+f9n3vzUcBFtdlKI2V84mw9syJdAkgAJrvh/+3NZUII3kV+9dwv6ZcEFG8llKGgCZvQ77dowu7tv7YTf0kcKL//Ub1/2kfelyc5VXzk6qaBQNoAmPVpdw4dwcP8CUn7oeD3xjD4DwzrkzfNoi2ZoHW4k0m7JrkeNJqm7OGM32mPJ2N5ZRUbXwavIntEB96g04zV53eh0L0UeqaCl3cg92f0sZMMbeqIrXVbexh4AKiUXmzZkmxsLV75siLKtmiCIzFpVeFUYLiNKAbrwUdUqeNxGObH3Koj6IQO/a0zqSwVZapP6si6G3TJm5J/+UEkMrGNgf40jSa8rXxg9egbEEKvAdUavn3nstdE6U19RTerFA+6JJDHx+krl/peTJhbdZusuJkVTBHJYdJjBOa3wvTP3/3f5oLKwfwWnQkic+TWQnzMgE4Lqt0JhwpS1UOxwLQ8YMv6rYQTwARDfS4Cq+xLCf8XVX9w1WpirOcYRNk5xmlrbk5o88Epj3QXPCN0hli97VEzYNWpdbzXIAkke/14P8T1f+Smt+WMiRAx+PZN8Tgd78Ni6bjNiNS4xZ2ldqhPIEqRStN2PCqXlWsn37zVHqGes/ckFrJIr0RUv6A2WEBlWFepVl4F780sHJxDhqRYDWiA/RAKefIAeThnqTGm3Rp3q2yVAeyuF9YZOfnfnpGhx6xGSNgh8dN0NtidASpQte/z+lRePNAjuvd8JXkt2Negs2kQaU8rAITrENCqkfZF/Nbse2Bx/ErwwP6O9V26H4J21kWwUp1bgZKi9je9lGcsEDJly+FsYi1rm0+nTkaO5IOQBxNjTAp0XY/dtHFN0PFRJlXEL7Ijq+nVbhf2OeR4rkcmryx4pdRWKCaugSPSERsDQXHQprPnq3m0ZNnjP0mvkRMuMcjtlMsfYF/frTSjWHowVfCx8PzC2h4LkRuale9x75v6cznZXntWdzpWiVIOY/MY1oGDJS6a6h+xix+FdmcYKkr9uUa+fooF3HhB0bnWcvG61E3/3XepKIMGn0TInnDEmhKQ8Qd0W//9dOJchtiIiMZUD0tZI+vC15uWTS/KjXS4JFonLzuap8kksuM1u9tEFHEPTNVcAmWQgcUN/qmSM7odjxnCkoyXWvhnmT92poDf+s2XSBo5n4ac3FQWLuXB/+sByRrrLTFQqse+ffUwpZO+PDVODpX82kSubDc8Za7fhjPXo1PA2VBkEf9zlaAMozeUzTD5GlIHrKK2ZWATGYiJ5bTf4gKuHT+3X726h2BGgMzWd5T3e/dTWkcHiYT/PQ4boSvQl8Ii2l04rInMxcyTzExaHUbP7+NxSKdoXlQU7XP/f99tXR/KX0qJcyjAJHsQlxHPhJa5SHhxq8f83bDMOdpEFyd7IJ/9asJs/pwHCsuuoY4O4uCP5PI4Z4XgBlnbuK2d7MdkDOYfLNygEDr19LopqlqqLswkiBEfCH/3wERSPnk/hcDanQP5pIdiUtBN0H/5CJ3vooqDjEK+XeLmfRJkExqCSiPD3Yem4NusW2IEzDINorrjCTsogAp/yGfJ9GFGRtDWZGImtvi7kQ8Id+HezWRWswWdKppWHR14BwIAQDluJxfXH26YiholxSvrqTMu5ikxD/3+03IiBMfpaaKa0/35XquhQUcvowkeG7sBO8gN+/ze32p6RLoEBrkMUAWqRiPvLvw8B7H9uh4pr++qMYhyXeKIBR1yvK01JBB4Sul0bnOyE4WW/j2P97wtU9y7iRNQP0E2rU29Hzkmz5anJhKP2ZcHg/cfvhZezmUbvfan8Gxthxhfk2gKqAa6Vts9J7y+eOSAnLcEj8AAAA=;" vertex="1" parent="1">
          <mxGeometry x="300" y="377.35" width="105.77" height="120" as="geometry" />
        </mxCell>
        <mxCell id="2Z22_kwRR9E-XswUGfWk-7" value="" style="shape=cylinder3;whiteSpace=wrap;html=1;boundedLbl=1;backgroundOutline=1;size=15;" vertex="1" parent="1">
          <mxGeometry x="526.98" y="377.35" width="120" height="120" as="geometry" />
        </mxCell>
        <mxCell id="2Z22_kwRR9E-XswUGfWk-8" value="" style="shape=image;imageAspect=0;aspect=fixed;verticalLabelPosition=bottom;verticalAlign=top;image=data:image/webp,UklGRjgIAABXRUJQVlA4ICwIAADQOQCdASqOAfYAPp1IoU2lo6OiInPIeLATiWdu/GwZU9teKj1XNEdIx7Xmr6/ob8UPqM+ZrztPOm35CnUWsn5PlrMzTM/QGfJewfsP+MP9Bn2dkf8h6gXsl8+/3Hp5fAf5z0X0kHyf1Hf7v/xPV10RPVnsFheQomkjHiNJGPEaSMeI0kY8RsMTEjHiNJGPEaNsp4ceF7Op4fowM2/l0TLzWlsKpzAckPsTSRjxEEC04IHIth5yNCx/bbBNQbILpT796WVvjyvQ0kY62R9C5QbasyIsIvR7BE8KNEjHiNJGPEaSKxg/VKrPRtHpe/iXChpIx4jSRisKu0rKvx2vfA71yorftx40n6OyjsY8RpIx4jRxckccy43K1VvFpT2aMh9KugCyeFJW+PK9DSRjwlnCBQ30pvbSNniFnVGZ03vjn/MxIx4jSRipR+yUPZlQwgYKJpIx4jSO3zqJkPOsaVkYWmI4Qhm8YhtvdlEImKNTyC9uykXv+kO9IoLDzw2pQrShsEQ3mf49XysWopTmSCp83pshbNwSYWROGPEaSMeI1H0C4RiQOPEaSMeI0kY8RpIx4jSRjxGkjHiNJGPEaSMeI0kY8RpIx4jSRjxGkjHiNJGPEaSMdUAA/v9EYAFXCGFZuQ8LtJXZzQpSJolSAnZfFy/iNfpJv/MsKYTeW6gbW987YpfgN2ZTakIVStdqf3MoAhq2D5nQXDiIHUn/3GeyBRRwsNs+9OmZDZNt/eHF/FvpryBvhm3zwxhHo8jSxfeMnui8/RN0+ci6H5nNkIXOQIhV9+rB7Wn8+0VCFA5/cShwDzlhvXrk2Xz71AhR3EnC5BsOAeoQkpnxmD8FNzGAnP7kG5+ndHLujwss0IvFRdgG0fJBMuWLoWPRIqNOx7/tPdlZQHOzvDCrq+uWD/HBsBC0l5+E3p2/GgtYA9CUA7kXdxqxNEoMRvt/tmL9tkT8jK5ww2RwWAGRW6bCRtWFcSQrsjqEVT/q5/1CRDIhOB8pFjVmaUlOFRy/e+Abgyl8YGS8IJSVYpy/jq6wYF+mR7MPYMH0sTItoVMzuiYMcthEl5VSM9f7hWZiRxWZUsPClX3pb8cuhO4Djwa8ODe87ahBP9CeIJNao0m5VQcZuYq4GPqYfyf6jZOuqaj88X2cl0N1COSHhRFjAmed/DSWtWbIVOQusBfYpqZwU+GH3oPCp266utv+fXs++urB7wmPlQN9FH6yLzvc2U0/NN5VRVqXJOemhH4A4LWRuo0uD3ubjBa/yNOgYVMQTMSa9PWAZ72LAoX8uYNcezPySjuxZ9tqZFMt76/vhvt7fr2FN8RpepwHmgDnZazgWSrj0u/yrZSJMpvJ8kdaRSPjRhpr1DiCQdFhmHRvbU2/qrGVTR6LEppgQTgQnsye5gMOTTHU4ZKPDMfXR8GZ5Q/IZho7BxmYP8LgvEFCnBK0LvOxiZV8A3Of/M7pdPHH7M/Jy/kO09yz93vUXfTQ3P1O8LvLnLQ88flPHDrWTPUfeC0OzEYnzAeL32t0fTeMeZjUbYHe7PYf6XZd0MUX20cDHKYOlfBp9RKwua9kGi0kRePAf+otzhNLzTM6kIt4s3xhojntosr3kJ4LkITsUPYKEK+RivnO2rIV4fyB3SQjOExPJPoAQOejsOxwweik54pzotAv6NvkarhpyAtJfflTWlY5PBw/WLPI+IAgyfxLqHWgzDrA0Ce+QU+Q3o/qC5AkOxjSPQUGzHC4/W4QX5nM3Jp3iin6jA/r59cm8AfQR45s2j0IMN/ftIGAAHfvloan+TW6lqXbH1+3Zo1mXSSB4LL6eoldZN+UlIcInkdPe3/46iZOUuf09vZxUZaqx4Nj+Tg9D6kJOF1ASgrAfX+tA50vETHXyO0ZUNWWbJtcRP6EJQdusfVJo1yG2lxwKtTyO8K2Hg+DjT2xOLMCXYb7TeyAda5aCBwK6JW2gyOOTa73fRjNz6Sxu3IMcQ+x53yv3/ytsFbHDsvlDiJOvUOQwbM35ehHsISlYovTn17SpolTdhF2iYnlSY5flX3tjv2AumkS4QQecp4pTLCg04s9wooTK9xS0s4PxiQwrS+RH9IMKj+jPCrQkW2LZTSkF/WhpyzZUQlt0fu/9w/aXTw8Qw7APOtZ/on4ujLuSglzSVn85bjCLgtAVwkRl03d+ZWZSoGdPd/NnwFYaB1n5IiDlRrvovwrmu/HjjIbbsRONnTCa4Mnb+eSUukoSxCHiN3BX1nUrv7qRl6ZZX80vImXolcu1fSOwvLZjbW3z5vul+h8cmvmpHTZznejtCH+9yhZCUCMdMdo6z67NeGEwiaI6R74WnqclCvN4RNJk1uv/K7qogZWG9dOegigSmP4Bn5Qjp/AJnG2JroZEGi2HNOVCUm610uPLVToIiXC+oRun1IYs70zIjPh+fWVFy8WriQLaXdHbOcQ88dWHy121OQwToFCZ4TRpvy9dUXw6OFIuVdBGFLbFuKeKUD1yzioo2/RwI6DXp1iuXegw1TF4EJv2w0Q/lvP8cukVeGd4F7mVTsfaAIqnN5YFvmGbncDIFwyP/23fv2m5NXmto1MOq+RCn7jthFDabBHl9yArVdiKzCToU4qROIT8IFhaBGT2VXvFsYamCcmI/OGV9B2oLzHc1EKViN7T6ZufoJcfXJQqG9GDOgJyydcIPk6ba7G9UKdlcHApPFq6VXUh2Tm0uHD6zKu6+KtJlz86uaP7rpVTwVgb1SpspN/0YJM0f5XlZ6AGDI3Xgc1/2PnedZiqap3WJ6MkjBNJGMAAAAAAAAA;clipPath=inset(11.62% 33.33% 22.97% 33.33%);" vertex="1" parent="1">
          <mxGeometry x="560" y="410" width="53.96" height="65.3" as="geometry" />
        </mxCell>
        <mxCell id="2Z22_kwRR9E-XswUGfWk-10" value="" style="shape=image;imageAspect=0;aspect=fixed;verticalLabelPosition=bottom;verticalAlign=top;image=data:image/webp,UklGRmAOAABXRUJQVlA4IFQOAACwVACdASrPAQoBPp1OoU0lpCOiIVWZULATiWdu4Eg/PpmxZZ8fQ7T//VXrT/8P+PTGPVt5rHP6odpv+h8Q/Jf6a/Xv3J5fr033s/cf2b0I76+AF+R/1T/U70qAD6yeATqld/PYA4V2gV4wOkp63DhMUzVY0Z5oeGiRIHYATBjymrHWfxIQz+sAh0sMhFMYphizWqjPXGDiDqHu51CTjDfshVwyv0Snhlkz5ZOIq20pTUSJzw38sH4OUByo1s/t4mO9mhWolXrvdw6C/T8tTuXjdHQ8ESO2nP7MCHcqjFneolYvCaJCkXN8DJVTSi0t/QaXdRW38p603Mz6K3thBkMbtTuCICNEAqh8YhlUashsT7Pkno7JKbn2yF59vKYeRzHEB/rqcypLoXwpYTC/hNsrN3uBsFgworgEg+/4fyl2Vl2Eyu/ru5iVbgKLHk4hVKV1WykssKIx3UBMnPd/9S4Xtrw6Un1N5WrC5t739dZR5ICEWmpUwUeirAhAKCz+yhNi2016kRe1w0IkGYLauZk0nWe2HxqSpqSsul5voByXO2wUBwkFAOkEmQgri9HHGNS/6VLEdSFb6mUvqUvviBfBxN8de+WfBjG+jIdDvwxcKFeOrVAOaRTrzsFcMriaICDwAHV44Zh8aVD7/j68NdsxUhsys9nDK+KmSpRQHHnqYAiJ20/WllgfytddsQrtLNKkd5290u94IEjQ46jrKJXtVNCqlhFFIHTrZWsoXpjCN6z36WJpReDP6ivgKgzFocqD87JU67FzCjr1iXhHNZ5OmzVr3TTRfGm2H8YgHoWthDn7MVTA6emnIA6eYV5uRJxKs4iTiVZw9rl4sLiYLywtTY7325zcwFll9to2w22G2zHp00Z8TpaSK84X5Lp/j/Nr7Dzm5NjHNVff+OM2AAD+3Uw//LhuGXPL3Af/z/f/IfyHy0MxZtzscM+0N9WQ3OOszAPYgpUBap8Jiyuz1phJNXiuEU6B4Osxr794hDyQMOXNhur9OYoUapYBhAthvYiICczE3s+9n0Hz1RIM7KfNPJVaDCAxu6frsc4Cxjw/ROcqTM6h/5xpHpaMX9TpnqB21kOVh6JOGiFhrlTXpdTmvJexBFgV1yYN8Gi0/BvzYkje3kNm15pCUKyI4FrLvuQAkKeDHGmhevy1j5oAqJroexaKgS+8j5sb+ZWNVsuQQLAVJ1kB5jCkaFIjM8RvM0UW01Tzd8ykBw7iUt42GaDxeSYfYBGfuu6dPAzjvcPmQl00YZSjwcdu+dzI//I3pJZ8/x/2FFtEH+qaF3zPIF3tvl56CUVjVanFI5cQPw31i/9xOBEpKlBLFYqvvFo1A2j4NPhL6Piiwo5Muf3MR0uxeKbWmNvkggEBAC3bxjcf+7tt5D32nfShcrbirI9qVGVptHOzUymyaGnG4ZcQpUShXhh302vTzbbAb/KPuQF/sT5H4SjV+F3GTOxnlQBzGII8LhnAc1rjh964Ib2O+t92DUVI51GpsMyTzSfOhXAw5JnvRAeMZCAyXbQP4wnQyHqUZuErxZRtpYqiCgXpaFp7wz+r51iMTLwMOjIqIMSQr/gbk0ur4CIeC+BqOPG0Wx0CLRUPnMEHqBOpQzeFY2Cp8N0sRSWN//Zt3Eil7YGL0maSy8ecf0toivtw/hIum6iMJ/HMj0cJ/ajhN5V9dd1s5mqtw9bODGJE4Gj2wBYxnOKgRJpnmJByh6zF9dVHxjTEc6bIX72QOhxofb+MO2T+2eB2rehbqTk9mN4t6mh72UGzNRQ45BPEWmcKLdHSwqJsJ+gToUJljlELvbeOWVfU3w2a7n/x1wxCOZpvz9eKrWS3CNGpmW1sn0HePvOzFYT0777ElbBTsaQXXFNb9k7GmHhrLBdNjvmhhZXkS4AJB6G4ESOryVqMQLbBC3J6foumV9uMABiOY0UnrtlwNyBF2NkcTKkrmGZG0n4eah/DoL2rw6hMwcxpLKWVEW6UaLRPKgHcWExNnHFKmfgS53t+GuHGMYcKANRp8win5LOO3yW/dCys57XWZqnZDSRTBfigODBlhPKOf8xMS2ervw8z70G3t7FbSgDOqoDQR4sLa5UbxqfsHTFBK/zcQ0Q96badDhWIrZjTLDks8VQlbePPMK+GXgKlb0xAqh4OY2cULLSR0Jw3lCEkxu/Txwo8UKFeCfhJUqcVJFJ4INbWBS9BSh5oQybBH3WbRmQWL8o6CLZLU9ELX3aYZLF3A0ve8VyA/dKGopq7NRuSm90w9gzMtdNAJWuskIxDJiR8yC3Ny3PdZ31IapKbLFE7BBhqIO0X+n7DnunbA80V0brl4P4KhXNPGHlNr7fF5ohzP6rhI99MHZdt4s8pXykkrYUmgmbV9aWD/lZTnbAVh5SmUTthqV9HX3k38G/X5OTLp1w/6Vb+Lk5XhPactlyECvPhaNqLzb3QKZ+REUUJB9ocrKvcquuVWD1oDbWnUK92THhCZiV08AodTFd8fbNki8LpjdCMH9ZQAfvPk7IMjEGOTtjI3OE47GlHwZSr3hPNomZovatmUMieZ7ukDM5XvPvg4Gbo+LDMfrE9I02aVZ7PjXSl3ZuiP9vn7nYkUvwAr9I/ZIFYAJ9ENqwmOxJ61ihAFd/4qzwXnOWFlALLFO4yJSPtKgAIwnZeDUHRyo2p2UiuC2Q3i8bFf/6yAU5QHPQimCkOWv72XcHwYoGPiV3NG8akaxF4q+Ladw+7s5cog7E+m1kwmzIq3+yVDLqhPYAI9qqC+DNbH6ifwAQP2aSu4wUAFmXjcf0Zo8zDTlHCkrbPJMQzxobwBjONEMJggL+58jxDPL75EOkw6RtUGd7DLJTTqkGgTTT2gnot+PsUnFmAYCyK8SxDRpkMddN98/7h1DhubOuhFqOlJayvErhUUlNex1CXUhebrFo0893GOo7+7oEMkoCIhowID7rFhkbyf5mOr80t8jCVKUhAowRIsSTsF2sfWbni0J8jwlrxBF0gnLIGWAOb9Iv0FWfVGpVcf15RTa/Ub1aFetObvItUmR6+Q49lbG1eN4RvTKPUULDWABnagkQRemJNLcZW/gCUXPj0asA4UYm8PmxPbhywakAXAOLCyJ1G+z9NTgzJgP9e3mSXwZzL2qeJFt+tpQAz2CbgvrrwArzuYq3ZlU+FZXKaYGsMnap8VGrLZM1w/By4LmU1es1lkoKM/Y1gio3yD7RBHJt9cJtHfM0/EE4FHRTAUHfQzFh2yno8OKPzQAdtygOPnlciubT4SK6XIxHrvMnLCRooRSNpcbC6MxuLmjQQRQ6D9KkRcEcDvNrSL80NcGRa4Gilj7cZXHdy+PmhFKxgsi5aju6rLR1F4GCHbFqWIGfaVUMdMRIP579hjC9AAYyvQldFTbliYfWvUiGQMXdAAhGaOAW4Yinz35kDIAS2Z3BOGhE5hq7ot1oo5NCAm5Mg1YNlQprcC4sQWL8J820lQP+e44HfQAxc/4fCEolY64fb46vNitFpYrfhKDGI7jLNzU7vTE8mmlYh+jt7W21m8ZzsTNes42R2Xi0G2/+L/6QjJ/iurGeb0gmdesKjwGSwfL5q8ECkxWO7wqQPTQqNodmLbGaRBzbEK30mjaNl6TEuD5leSQrb0lRLXibk6ELbdgagBFDL9A9j9b4M3TwtyfCJ+7SNVEnaKbVtRAi7yJcE0sPrV2/2fSkgHL66bHpCqM206cghp4ra6EMRemPe50TNR5fTeeIg9sCCwBk5nyg/0cLgadVEyCx8Jb8u5N2/OME749Wwn7Olg2J5dTTzfwolxRa7hVMo8HGU+f2nG48zBuFVmVaT5BryTboZDzLQa1vZstzwpv6d+FCnaUuSo8RLktzKwbDjGuYMiqKD2QaxYnKEeNfEcViPdwG5xdhGBy+LV8/RmotzWecqoIuxMbUT9di8fqLj596JA/dLt/w/g25P7Zi+DzRLqhdU/GjEBQliC6pbnpmz9Po7d5+b26Gu6zjOFnPXbvqs0EeAGx+t/2TLLwOCrwJdSbZRK/bM5ehB02LGXD5GF1ePgr98oYVFDFUiUFPPNg+/BWjDkYEKgJvuLZGy/jLjvGoTt3zmXqDnL1o1HO2XhCf8/eJITYWJdRc1fLxgiE9vGdy9Fu6CXMiDyn+O1myht6JyEA78IL/WWQ6+0bihz2kzwCIb7KzX9aV8KwjMReyxDs54jaMiu9g9VU4Q1qeVRfTkchDSK0ycAxp29/H8rXY+pRWPMhf3A2jVXGMbQ5p4Qvp8Vn7LVlxn6f6HufXWGPlMP55Gha2mQjml55sxu25PYsy65Ed/prNzsbUGUfqmH94Ifyg6q8qLLDC3r9mYPF/dzNkz/0GiL6s9lyE85aXVCsYD+oKPjhdHO/oQ+ZNs+kDzhuF4WLkwi3X5HjqYUnSdlEmqad3+F6QgyMvrzEUBoCcGH4p1tt+BPdn/Ahgi0exKOGFgwLNi76ZbhnpcJyfPXQgH0yoqBoy45MSPld+/+tTcivvjk+n+xRykgxPSVSL9bARwqBRuQIoBVHeBDPZADoOYPwjaL/WAd8WKdveAR8NX8H7k6l+n6x804GTkTToNvv6OOmZ1yr50zfV0sH+ZtE/kX4DChH5QJTgtn80+9VdOnkFZ9a9jTx3oU4VFpMoh1UyMUv0aXOzZauyHubT+5GPAzUpBcye7pfIfEKWssYTqxHzuN/ynCtbUu4giL3VBuwFppJA4FQQ6t9JmzvPMbt0tzaBSn+bIKBFdnlxpivwSMZQ8lbLhFh3no59iTLUlLcuf/2jNS5FmucNZ66enLWQ/vHoqxP27rFi9mnQ/GFr+g+HF4TnU6sFJy3zNKrnCoHiFS0LBvWQsIJr7ip0wrVhiaRUOW8CoDi/RvriivLpyOdCKFySo4V4lIPyc+/6ItLAAAA==;clipPath=inset(15.7% 33.33% 16.86% 33.33%);" vertex="1" parent="1">
          <mxGeometry x="425" y="178" width="77.59" height="90" as="geometry" />
        </mxCell>
        <mxCell id="2Z22_kwRR9E-XswUGfWk-11" value="Zookeeper" style="rounded=0;whiteSpace=wrap;html=1;" vertex="1" parent="1">
          <mxGeometry x="295" y="310" width="115.77" height="40" as="geometry" />
        </mxCell>
        <mxCell id="2Z22_kwRR9E-XswUGfWk-12" value="" style="endArrow=classic;html=1;rounded=0;entryX=0.5;entryY=0;entryDx=0;entryDy=0;exitX=0.5;exitY=1;exitDx=0;exitDy=0;" edge="1" parent="1" source="2Z22_kwRR9E-XswUGfWk-11" target="2Z22_kwRR9E-XswUGfWk-6">
          <mxGeometry width="50" height="50" relative="1" as="geometry">
            <mxPoint x="400" y="340" as="sourcePoint" />
            <mxPoint x="450" y="290" as="targetPoint" />
          </mxGeometry>
        </mxCell>
        <mxCell id="2Z22_kwRR9E-XswUGfWk-13" value="MarketAux api" style="shape=cylinder3;whiteSpace=wrap;html=1;boundedLbl=1;backgroundOutline=1;size=15;" vertex="1" parent="1">
          <mxGeometry x="90" y="305" width="70" height="80" as="geometry" />
        </mxCell>
        <mxCell id="2Z22_kwRR9E-XswUGfWk-17" value="" style="endArrow=classic;html=1;rounded=0;entryX=0;entryY=0.5;entryDx=0;entryDy=0;exitX=1;exitY=0.5;exitDx=0;exitDy=0;exitPerimeter=0;" edge="1" parent="1" source="2Z22_kwRR9E-XswUGfWk-13" target="2Z22_kwRR9E-XswUGfWk-10">
          <mxGeometry width="50" height="50" relative="1" as="geometry">
            <mxPoint x="400" y="340" as="sourcePoint" />
            <mxPoint x="450" y="290" as="targetPoint" />
          </mxGeometry>
        </mxCell>
        <mxCell id="2Z22_kwRR9E-XswUGfWk-18" value="" style="endArrow=classic;html=1;rounded=0;exitX=0.5;exitY=1;exitDx=0;exitDy=0;entryX=1;entryY=0.5;entryDx=0;entryDy=0;" edge="1" parent="1" source="2Z22_kwRR9E-XswUGfWk-10" target="2Z22_kwRR9E-XswUGfWk-6">
          <mxGeometry width="50" height="50" relative="1" as="geometry">
            <mxPoint x="400" y="340" as="sourcePoint" />
            <mxPoint x="450" y="290" as="targetPoint" />
          </mxGeometry>
        </mxCell>
        <mxCell id="2Z22_kwRR9E-XswUGfWk-20" value="" style="shape=image;imageAspect=0;aspect=fixed;verticalLabelPosition=bottom;verticalAlign=top;image=data:image/webp,UklGRlYSAABXRUJQVlA4IEoSAADQcgCdASoAAgABPp1MoUulpCMhpPQZ0LATiWdu4XKRDOI6ml4Dzi6s/dv5zyQB9e4ucv+lvYA/XTpPeZj9vPWP9N+9c70vkIXnf/W9rv+u/rX+F68L2P7h8weJH8o/CH8v7W/nj/Yd6/zQ1CPxL9Ub174fmBd4fQB+v82fs17AHBsUBvGW1EaiY7IXsdQuQ4WNqbA232nQvY6hchwsbU2BtvtOhU3fyPHcXoYdkOFjamwNt9p0L2OoWTcLTbgbCAy+OPZY3tz2+06F7HULkOFjamXEJA1kBkHigLpbsxeFI3eE/60ZE/5KDxd2wbHoFjamwNt9p0L2OoWQdORr/+taYKkiyOvTVfQzEgnFmakk/Qh36ADkZMxuHhgbb7ToXsbQaFB5Hy6yVcT4GCS8f64MdH47RhsUdPzWVO1G98Jlz+MwCTDfY3Y8RDI0rf7MOyHCxiK+beedXo1xfahr+oRzVWTm7y4iEJNdR++E1DJ0qunnsL3madb0wVxYpeyPYY0n9tFmLPyiLhOUf0B1fB1yHC6GjF3fY3zXu4IEL3FZTZ65/fMp+CGlNJKOLUrHEHir4wNt9o0GUYaaT0RuLDi2WCBpkoWAXFDYoPsZb8Dw8k5b75VO6QBx0PPiJdWxFMMAgAXVGKpiXoem8vzpsTSnaqTUWm6rwhatZIsAyWWtHvU2Btm1H52svXMIiNaJ/4r+QHpN+cc5/LpziuTO9aJCnBq90phaUpffk0+6Ju+wGyKZFBjrhC8ZY7W1kUqFPpCvZuHax1RtPJVRhLlLeoBOUov7zrG1NgauI2f6NMvy0uPD1XP7xUwha7Cu6YFgP9luj8kMY9zMR8gGWc3HpZ4dHkz6LYJ1Jit9CJDXWIij0/Xrr+KfBggUmwNZRsLv1/Qhr0RcsJamq2ecZVIzIyFIwO5I0RHgTbnA+1izPJ496vi/ATWGEbj5louvEANwy7i1Kg57sDTSPFWzZIC1CgihwsbU2BITVbdEmIFx24RPpLppe1xXhxtWxxUsywzmZeRMInjuWpTBNMgyB7rqF7ipOUKNqGRubgTikztu4Q2hVTdUEoYIfritj6J1b0dn+Dc4H3sw7IcLGyhr/eIFrkvqwlxOE/fNDF0RdltqwIoRDYDlYTN2f8dnh5eCsOZB2FJSS3FVxufY6hchwrwXKbKAGyjGIvY6hchwsbU2BtvtOhex1C5DhY2psDbfadC9jqFyHCxtTYG2+06F7HULiAAA/v8EEAAASzT9WfrGWgeE8YVszlouCy+9LNwCo1/8kCVEqQP7W187weXL0aNQgyEFKz0FO6gDiiw2M/w3sDrsOnvAUfD6dUpY1zcb+E3fGKC1KTz5uu89ctNpJ6UQljMzy9fWSe56eIsewz6EVsTeR+BY0w/2u4TQtdIBxAJQVVojrGuK8hBDWJpoYZEqchka3gAndW9NvksUW+zQLF9dJmDpkhy9/v4j0cK6/WdRADFy7p7ODv3K/+6d8kmSrQ+Uw4tRsKwVm6swwB+lHhzG1ORPDV79SBCNMoLT1PedUcLUR/iL7WHMG9f9RKNdzAm265whAygW8z6J1uj4kQx8N08CIWKl+COHHVUYtn+t0c8zlMSHnnb9mgyN1SmLi47XqLkR6iDyvMFf/FItJ/fyrFEkWfnWK7e0uc3/v9oKhPu9qhQpg+YtzX6m+yxHH6IipxZhY7jMpLgCVqa11FPIUlqW2ZP3DfZiUOLiQIhRerPyWo6Lk2DfhThE9r9JZ+3y1P+9KKKBZwqiaL2cN8tmOYeoT639l9xIvEvY/isHlIzUC65EWFRXIeNjDvR4Ed8+83UaDLfIpahbnHuPnyY8YXBe0JyewfkS/cV2pKMlJ0tElm95uAvoX4W5LYqOPEjqi/YGajDg5g/NY4Op4+t+E2EEhXcihZPdXoM/US5GDnMTbbggCH6ynfgFRHYN58PbYtgwsNDs/9YX5iVSev+zdHU8SdHotf/1tA9/Mp/tSn2gHAQdfIGv3HMdJhIW/RvdS2fPB0Cs87kY5XheRXZYL4jJLzE/gOu+B+Z9bXE0j5cRLMtnxFgGGU9N7LiWW9jODmYFf1Wdl/+eIRu7GnocL7ekc2vtZ05pw032nwu6uVxBYFXj9StTXLiLs6n3n3A7iUypEk67l4zos/FEKMlgS1UkJEnoskZ1QU7fhm5xIO7/fMbWOXnlE72cXEPe953k9IM0kHViEZUTI6suT9PCHRmo52v9IGWyOMDH+0p2wARzElZ9Nb353iudIaOhC3Z8+ZDCashZgDCQivRR5vibslkebBD0mjosjjWFy6hBR+yzdHmUuTR8tPzsIcczJAQyAnz2wgerR+HZPICuEGDWt/t/xXJoYGLQzJA6CMQDvZFM06Ktfajlz44uyC3QmNWKHetmXHHzRv6xnhARF2rsl1O/drca1IWiYByBmXZk396D0snlLyIHekt4B2hp++JJK36I8TriTZ5IAGwvm+p/1NO2ONqKpNImdB0JCWRz/Z4GYA8kKJsA+3w/RiZxW0TUjvkOBxdrDxwnIzD6A/1WldXB4WD9Kwb4Blq8EAa6sMqs9UErkZJjGq7RPOrNoyxrkxi42O20BZUj+vT6QUuVzoN853K41kPGF/fY4h27ps1fkFBSwHmpF4LcteWmmgaAnLyL1gFcu0u9D5Pp5eP7YpNs7XF3GsQ/6Y533gNq6JV0QkqvfruMThnGbrZdlKCjMLV1Lz9JrrahxVPzYrmTgwrrcQAjhobPYie8JJmMHW6zEnu6jZY4wW2KRGuqfGA0bDypKWDcAJRrGLsefnQJOHQthH8CmIVUFTL7LPxA9AAcdjxoZvuQ+oM/q8sgt3jOgWspxYeQFvq50+uODebHBufaJC7b/vuz3d+Bl6cdxfhxYjfUQARJIgMwgcw9NhpbuTGdOvE2RxeHMCufAQ45SURUxfA1dRIzTemo01uWGVRlcF061oxMVPczc1Z3VkgQCdLyWwfE8dr9fyla9NBHKsy7LGwV+HCKJ2pdg7AsoRHZPRW/Tkfl/C4Kkt8Ilrwdkp+oZKiCqNNXi6j9o6FtQB25lQPPvE9RD5jA2dgvy45Gu+faAyJ6ituSf9b2cQKC2tV7ulP2p+4Z3RO9zy5eermUo4H2qg/fs4spARuSQqijsv4Le5vmqf5OGuhyfAoe8+FKW1U6rLjeoPY0tgfC+txyy6qoWc4TEj9jX1vLpmQtygCzGBgb1iFuPsYHIpYOPj85LP5z1LHSNcbrq0XK6YIr5DF07tK5hdg28m9qFFo4uOSuFEAo6AW+de4FUBrQFb51fALsUJ1rzl43e3UHzMm+PW/ix4lyyuaNRVrWbWN9OwX9LY8a/LXJAUhODmkZoyxa+hOYUV9fAs8DANbzXHf0AnpUbvq7faV/5ruzVN1H25YcYYLnkr2I/C9yqYV49wFQwL3MJTUE0h7WBvErqqO1NiuI2wU8Cwdwgw2BLlCLqcm80Y2mWUAnEfyx69FN4Wcf5yERCERrRr+83peyG4s8WtEr33ZMVSzTdrWZ1Zpl4zfIWE4GHREoNzSnhTCGGgP67opk+ctJZ3Ayuw/3WmyxVhh63vUWbDSRYcNakR7Jgp/ETeUMfWcXUIRrJjHb4ITP99nh7JH33BcwXFJicEjGeU/YAoymPj0R5ewrhRTHJS3945Zcy68FFIxEgY//1E/TY+qWUnthAMLxtNDZJAaeFvnFwR7/o2vtFjofxFfbqomeaA14ZSFHgTCEIP9lPnkp/Rp9ipEyGDf2BSRBt2ltv+VnqtfTuPui31LRlmKfr1VfWT5BnhyamXbWnY0EnybJFQfG5Pvf9uoQp9QN4MNES4SGXF4O1CXR0J2WTnLPzUO0Inmj8Bhlt8N7dJoORK+Go6oJ3gx1WoGOesaQq3NCyYxVTi8Ea1HElTX1Ht7h3LTEWD9D+ZdcmT+SZnJF/WXv4tIEdvOrWx283QDZpGLzWjScloElCUwBl5yZ5tg8wU4ou2VNc+vd39rXf2swAG8vkNH1kF+qChIDQDjxWXDzeQWR2YkDYPdrsiIyGrfPfIfXo0Eug98yIWZdMP2efmV3/n9+iDMLfQ3r8wsDXV9O/yNBB5UM6MZovU7XUi0yQiXYrVogCZZ8DC4tQnEn/tho2yoQ2Bx20+8JsHdPvACwKQLfi7QetBO14Nyea1dfD20Nih+Y2apvefpXtS78P92dZ8yrSNweGjOlXx1NbA3CoYg634zH9mbvqxCx2GphrLGb9jIEgKSMf22sfp7RK9UO6fA85Pl6cXrxCCQwU8QN0vp65xTqwOI72whS+0rtqqgb0YPJZ0/sko1K1WmI7M1JOHJOl/dw+vpBkf7ZMm93fBq7gHBxnRA5Szlsnwin6vZtN2CoNPYG+kup1kW1ZdsA6rQgFN6vd4QoRNlqGsJh+RyKqczqAJaMl3wxnShwfBTwC17Ikwj6cCCWs65jEqaPkKAZ+yEvK5V8V9PqO9rNrUnjHhoYWkKPiNv+Y/uGJSNFkGprWhKBU7kty9v8c0ACA2DQpuuWqNi+Z75P7IR4DJdAt7YslrnVjmXWViCq5mn1TUxwiOydGl4AF4EWWw293sn/bVZvW2RyleDm+7xV8pWAJK1xceuVg5lNSzn0W+3QnaPWDU1hm/eof2HXTgzoC4vSU0ydgf6BQnaDN5Zl6TPm8H9vo6/4im3n5izb1PXWkovqAcNE0sLA9vUqqBp1vT8AbxVLwcNhHcEn7oqCvDLVYsV7WBUGVl849HOgVH60vYghhVTRPsxZhXA12g832Z504lWAXJUDPzjTFsXxRNt1J5jvclPGssb+UuD08iRYczotDP7quZMMB7obHUL7vmRn8PbNVcjgbxjolOttwYIYNLCyNVeKbGwLCeBthorGyE1j2vMEkzVI7mwDoCLReSNp29S4L01ywJACXOE8bl6vzyf1f3V+iyHIJYUH+VS6e6qYj7DO1FoGz/4p0iLDnqiOAao1cHpVHEEsE3VGGoNjkhNS2E3x03Qx+GbiCyPHPOdTX1UxTi51ZW7gS57DiJ53+3W2frrQGFR5wI7ygNsTZyctC4l2sSPyqTd7a9Kki8SKkilh+HcSalEXkvvr94tVMySUKvjsr2cNe9XeJ0c44IL8ipIwzwRumNaFqjZkNtURup7Lx/YP9hocC/OKD8780/Z/m5tsFPF7ronJJnrYJHs8/Q3GUW3AhdRVWH9XDCOb4SY8MHc4JugC8HyxAU49resld/4tLmEkVG1nCUeJgozIprfIAvUUoOJ85hx548VS2n+LhyCnL55g+cqVcszraELyVnedy4sVEPEFOknAwzdQ04Sl3oEdW+wHOQ/lzILdi89ovf61le7J7q+GOruadlnfOHEkpVWbzxNlQWgew1Ireu0oqbwGibW4ldXoftW42YA5VfZB2zJ65MA5eAURexW021BZw90yaVTAlKyAxnaZix7ONhufTO2Xj4+MMjNZH9Ee02/mA5oekMWCYYJSzK+LujKykn7zDFiJMu2x8EgDTAKjgKVAD+ywvK+zqQnsNRymddj5bj7KUK9plPq1DUSUYFbtGHdgfaI0GRw6XG0CRhbc9jg9QmL7Eu7bsKlYxbpsuuJmmkya1Si+WwmuSqnSNonDN3rkiYaQJq1lSZTA5y8NC/q0K2Pa4WeOUacTsfGDYEuXwC33DjdiONmZpJ9sRJ6QzFzR2E7KLQ1p4bTwJCYWKc4UbkE7RQQgjvdtyCK5iujTs8AolSq5V+gyVOfhKr55ZyS90fhGGH+HzH/dvcL9c/gL32Dp5Zc+qNlWtr43d8yZ/tgGHVsZvRcn71woPAUpdyGUeXGYSmNzn9JtDb1oRqD7Pxr0V4MEnKa+NWKHM03hxcHLPD4XHCFqugOdMFlIjC5Ef2tgE201ETgp+kX5BGPG6qu4cvB+h4t72Y+BwAYdHvh0jkNaS2xWnSzk5BywN2248drU6jNXrYR7z5TSlmDSBXkOw6eaDwCTZ8R0WQhrWxtu6PIGY+I9SDKSp11GcI56v+VVB5usU+8DG146GsnTUpMGnGgEW70QTyDlTFZhpQwjrGkI084nLFUwiTc55iEWmHUOUO+zbNUNMqDdca/Q5K1Ij1ESdOEDXuDEJQYAdyj6b8reHLf7+yMuawypV/wVY5nJdZZk+di+yYyjbFWP9Gb7nyMyVaVTIhS8yMBM/LcBw031RpNj/83Idx1GibHsu8aPoDwHMzBdpFrGbWOmv+tF9n9XyLigg67APGHv7gE4YNYQVYAAAAAAAA==;" vertex="1" parent="1">
          <mxGeometry x="390" y="610" width="180" height="90" as="geometry" />
        </mxCell>
        <mxCell id="2Z22_kwRR9E-XswUGfWk-21" value="" style="endArrow=classic;html=1;rounded=0;exitX=0.5;exitY=1;exitDx=0;exitDy=0;entryX=0.45;entryY=-0.026;entryDx=0;entryDy=0;entryPerimeter=0;" edge="1" parent="1" source="2Z22_kwRR9E-XswUGfWk-6" target="2Z22_kwRR9E-XswUGfWk-20">
          <mxGeometry width="50" height="50" relative="1" as="geometry">
            <mxPoint x="400" y="540" as="sourcePoint" />
            <mxPoint x="450" y="490" as="targetPoint" />
          </mxGeometry>
        </mxCell>
        <mxCell id="2Z22_kwRR9E-XswUGfWk-22" value="" style="endArrow=classic;html=1;rounded=0;exitX=0.639;exitY=-0.056;exitDx=0;exitDy=0;exitPerimeter=0;" edge="1" parent="1" source="2Z22_kwRR9E-XswUGfWk-20" target="2Z22_kwRR9E-XswUGfWk-7">
          <mxGeometry width="50" height="50" relative="1" as="geometry">
            <mxPoint x="400" y="540" as="sourcePoint" />
            <mxPoint x="450" y="490" as="targetPoint" />
          </mxGeometry>
        </mxCell>
        <mxCell id="2Z22_kwRR9E-XswUGfWk-23" value="" style="endArrow=classic;html=1;rounded=0;" edge="1" parent="1">
          <mxGeometry width="50" height="50" relative="1" as="geometry">
            <mxPoint x="646.98" y="440" as="sourcePoint" />
            <mxPoint x="740" y="440" as="targetPoint" />
          </mxGeometry>
        </mxCell>
        <mxCell id="2Z22_kwRR9E-XswUGfWk-26" value="End User" style="whiteSpace=wrap;html=1;" vertex="1" parent="1">
          <mxGeometry x="740" y="412.65" width="120" height="47.35" as="geometry" />
        </mxCell>
      </root>
    </mxGraphModel>
  </diagram>
</mxfile>
